<?xml version="1.0" encoding="UTF-8" standalone="yes"?>
<svg xmlns="http://www.w3.org/2000/svg" xmlns:xlink="http://www.w3.org/1999/xlink" width="163.225342mm" height="127.328987mm" version="1.1" viewBox="-304.701080 427.824951 848.255981 661.708374">
  <!--
	Exported with Concepts: Smarter Sketching
	Version: (unknown) on Windows
	https://concepts.app/
	-->
  <title>Untitled</title>
  <desc>Drawing exported from Concepts: Smarter Sketching</desc>
  <g id="New_Layer_2" opacity="1.000">
    <path id="STROKE_03c65ca7-e0bc-4b55-822a-b62f8ad534bb" opacity="0.700" fill="none" stroke="#fff000" stroke-width="9.600" stroke-opacity="0.700" stroke-linecap="round" stroke-linejoin="round" d="M 34.716 856.536 Q 35.263 856.895 36.816 858.410 Q 38.369 859.924 40.166 860.438 Q 41.964 860.952 41.982 860.930 Q 42.000 860.909 42.175 861.074 Q 42.350 861.239 38.645 868.043 Q 34.940 874.847 31.255 878.475 Q 27.571 882.103 26.095 882.220 Q 24.620 882.337 25.826 876.945 Q 27.032 871.553 30.097 864.238 Q 33.161 856.922 34.758 852.717 Q 36.355 848.512 37.379 846.226 Q 38.404 843.940 43.435 830.070 Q 48.466 816.200 52.328 804.215 Q 56.190 792.230 58.272 785.002 Q 60.354 777.774 61.806 772.584 Q 63.258 767.394 65.027 760.030 Q 66.796 752.666 68.015 745.823 Q 69.234 738.980 69.338 736.084 Q 69.442 733.189 69.331 733.698 Q 69.220 734.207 67.540 739.025 Q 65.859 743.843 64.704 746.982 Q 63.548 750.120 58.070 763.429 Q 52.592 776.738 45.251 792.169 Q 37.911 807.601 33.860 815.633 Q 29.809 823.665 25.863 830.824 Q 21.916 837.982 19.644 842.370 Q 17.371 846.759 11.186 856.520 Q 5.001 866.281 1.227 870.825 Q -2.548 875.369 -3.237 874.621 Q -3.926 873.874 -0.460 864.811 Q 3.006 855.748 5.392 850.417 Q 7.778 845.085 11.671 835.788 Q 15.565 826.491 19.146 817.383 Q 22.727 808.276 26.896 797.284 Q 31.064 786.291 35.115 776.106 Q 39.166 765.922 42.628 757.570 Q 46.089 749.219 48.161 743.969 Q 50.233 738.718 52.006 734.927 Q 53.779 731.137 54.891 728.549 Q 56.004 725.962 57.081 725.156 Q 58.159 724.351 59.138 725.023 Q 60.117 725.695 58.819 736.526 Q 57.521 747.356 55.702 755.075 Q 53.884 762.793 51.796 770.430 Q 49.708 778.067 46.394 789.195 Q 43.080 800.323 37.644 815.942 Q 32.208 831.562 29.119 839.442 Q 26.030 847.322 23.902 852.780 Q 21.774 858.239 16.833 869.510 Q 11.891 880.782 7.900 889.303 Q 3.909 897.824 -0.650 905.350 Q -5.208 912.877 -5.551 912.756 Q -5.893 912.635 -6.568 912.211 Q -7.244 911.787 -2.249 898.805 Q 2.747 885.823 7.555 874.217 Q 12.363 862.612 14.919 856.498 Q 17.476 850.384 23.252 834.531 Q 29.028 818.678 31.863 810.403 Q 34.697 802.128 36.701 796.595 Q 38.706 791.062 43.376 777.189 Q 48.046 763.315 51.629 751.739 Q 55.213 740.163 57.416 732.801 Q 59.620 725.439 60.818 721.278 Q 62.016 717.117 64.250 709.167 Q 66.483 701.216 68.738 692.877 Q 70.993 684.538 71.298 684.868 Q 71.602 685.198 67.940 702.154 Q 64.277 719.110 61.649 729.941 Q 59.020 740.772 57.421 747.050 Q 55.822 753.328 53.985 760.929 Q 52.148 768.530 46.887 786.871 Q 41.625 805.212 37.169 818.801 Q 32.713 832.391 29.689 841.084 Q 26.665 849.777 24.785 854.669 Q 22.906 859.562 21.896 862.790 Q 20.887 866.018 14.596 880.611 Q 8.305 895.203 4.737 903.093 Q 1.168 910.982 -1.618 916.767 Q -4.404 922.553 -5.813 925.584 Q -7.223 928.616 -11.560 936.762 Q -15.897 944.909 -18.900 949.159 Q -21.902 953.410 -21.892 952.590 Q -21.882 951.771 -21.573 949.455 Q -21.263 947.140 -18.645 940.282 Q -16.028 933.424 -14.374 929.514 Q -12.720 925.604 -8.217 916.203 Q -3.714 906.803 3.051 891.378 Q 9.817 875.952 13.823 865.548 Q 17.830 855.143 20.270 848.784 Q 22.711 842.426 27.719 826.700 Q 32.728 810.974 35.438 802.928 Q 38.148 794.882 42.159 779.490 Q 46.170 764.099 48.188 755.903 Q 50.207 747.707 52.306 738.837 Q 54.406 729.968 56.511 719.335 Q 58.617 708.703 59.891 702.186 Q 61.165 695.669 61.490 691.045 Q 61.815 686.420 61.863 687.130 Q 61.911 687.839 57.941 702.345 Q 53.970 716.852 50.742 728.964 Q 47.513 741.076 39.871 765.702 Q 32.229 790.328 27.933 802.922 Q 23.637 815.516 21.897 820.802 Q 20.156 826.088 15.679 838.105 Q 11.202 850.122 8.523 857.039 Q 5.844 863.957 2.409 872.323 Q -1.026 880.688 -5.697 891.173 Q -10.369 901.658 -14.757 910.564 Q -19.146 919.469 -23.009 926.611 Q -26.873 933.753 -29.529 938.471 Q -32.185 943.189 -36.871 951.100 Q -41.557 959.010 -45.028 964.636 Q -48.499 970.261 -50.527 973.402 Q -52.554 976.543 -53.947 977.904 Q -55.339 979.265 -55.543 978.290 Q -55.747 977.316 -51.815 969.081 Q -47.882 960.847 -45.232 955.784 Q -42.581 950.721 -40.046 945.905 Q -37.511 941.089 -33.188 932.561 Q -28.864 924.034 -24.712 915.283 Q -20.561 906.532 -16.692 897.726 Q -12.824 888.921 -10.245 882.538 Q -7.667 876.155 -6.264 872.716 Q -4.861 869.278 -1.038 859.100 Q 2.785 848.923 5.381 842.070 Q 7.977 835.217 12.872 820.429 Q 17.767 805.641 20.374 797.536 Q 22.980 789.431 27.857 772.751 Q 32.734 756.070 35.112 746.958 Q 37.490 737.846 39.598 729.279 Q 41.707 720.712 43.910 711.657 Q 46.114 702.603 48.397 685.918 Q 50.681 669.233 50.965 669.978 Q 51.248 670.723 49.548 684.160 Q 47.848 697.597 44.538 711.947 Q 41.227 726.296 37.997 739.618 Q 34.766 752.940 31.729 764.556 Q 28.693 776.172 26.634 783.771 Q 24.575 791.370 21.135 802.555 Q 17.695 813.741 15.394 820.676 Q 13.093 827.611 11.891 831.177 Q 10.690 834.745 9.407 838.457 Q 8.124 842.170 6.649 846.117 Q 5.174 850.065 4.192 853.117 Q 3.210 856.169 -2.679 870.926 Q -8.568 885.683 -12.023 893.756 Q -15.478 901.829 -18.933 909.480 Q -22.387 917.131 -25.341 923.246 Q -28.294 929.361 -31.308 935.295 Q -34.321 941.229 -36.636 945.822 Q -38.951 950.415 -50.257 970.665 Q -61.563 990.915 -61.763 990.173 Q -61.963 989.430 -58.263 981.269 Q -54.562 973.107 -49.778 964.536 Q -44.993 955.966 -36.857 939.962 Q -28.721 923.959 -24.819 915.395 Q -20.918 906.832 -19.252 903.082 Q -17.586 899.332 -13.227 889.260 Q -8.868 879.187 -2.344 862.525 Q 4.180 845.862 10.345 828.696 Q 16.510 811.530 23.241 789.452 Q 29.972 767.374 33.088 755.715 Q 36.204 744.055 37.571 738.679 Q 38.938 733.303 41.298 723.153 Q 43.658 713.002 45.571 702.409 Q 47.484 691.816 48.794 679.904 Q 50.105 667.991 49.806 661.903 Q 49.507 655.815 49.049 656.586 Q 48.590 657.357 47.788 661.965 Q 46.986 666.573 43.810 682.712 Q 40.634 698.851 38.725 707.330 Q 36.815 715.810 35.908 719.811 Q 35.000 723.813 30.530 741.615 Q 26.059 759.418 20.476 778.858 Q 14.893 798.299 11.301 809.609 Q 7.709 820.918 5.912 826.146 Q 4.115 831.373 3.106 834.354 Q 2.097 837.335 -2.546 850.303 Q -7.189 863.272 -13.978 879.275 Q -20.766 895.277 -24.499 903.000 Q -28.232 910.723 -30.792 916.242 Q -33.353 921.762 -41.181 936.262 Q -49.008 950.762 -53.577 958.300 Q -58.146 965.838 -60.257 969.236 Q -62.369 972.635 -65.131 976.847 Q -67.893 981.058 -70.936 985.767 Q -73.979 990.477 -79.788 998.531 Q -85.597 1006.585 -89.409 1010.648 Q -93.222 1014.710 -94.182 1014.601 Q -95.143 1014.492 -86.300 997.624 Q -77.458 980.755 -70.604 968.262 Q -63.751 955.768 -60.150 948.755 Q -56.550 941.742 -54.772 938.205 Q -52.995 934.667 -51.989 932.649 Q -50.983 930.631 -44.640 917.874 Q -38.297 905.118 -31.042 888.311 Q -23.788 871.504 -20.537 863.128 Q -17.286 854.752 -15.612 850.740 Q -13.938 846.728 -7.591 829.114 Q -1.245 811.501 3.542 797.460 Q 8.328 783.418 13.877 765.112 Q 19.426 746.805 21.822 737.574 Q 24.219 728.343 25.424 724.194 Q 26.630 720.046 29.858 705.670 Q 33.086 691.295 34.939 679.692 Q 36.791 668.090 37.489 662.284 Q 38.187 656.478 38.742 651.887 Q 39.297 647.297 39.720 637.990 Q 40.142 628.683 40.225 623.829 Q 40.308 618.976 40.252 618.984 Q 40.196 618.992 40.183 619.524 Q 40.170 620.055 38.010 639.443 Q 35.849 658.830 31.547 681.230 Q 27.244 703.630 24.752 715.044 Q 22.261 726.458 17.862 742.938 Q 13.463 759.417 11.148 767.695 Q 8.834 775.973 7.621 779.905 Q 6.408 783.838 4.069 791.459 Q 1.730 799.081 -2.992 812.674 Q -7.714 826.268 -10.549 834.230 Q -13.385 842.193 -19.573 858.237 Q -25.761 874.282 -33.493 891.227 Q -41.225 908.171 -46.265 918.662 Q -51.304 929.153 -58.289 942.475 Q -65.273 955.798 -70.201 964.392 Q -75.129 972.987 -78.376 978.497 Q -81.623 984.007 -87.501 993.669 Q -93.380 1003.332 -100.274 1012.716 Q -107.169 1022.100 -107.422 1021.962 Q -107.676 1021.823 -107.967 1021.298 Q -108.258 1020.773 -95.900 997.943 Q -83.542 975.113 -76.721 962.356 Q -69.900 949.599 -67.037 943.786 Q -64.174 937.974 -62.779 935.262 Q -61.384 932.550 -56.764 922.754 Q -52.144 912.958 -49.053 906.346 Q -45.962 899.734 -41.143 888.661 Q -36.324 877.587 -33.423 870.515 Q -30.521 863.442 -27.224 855.022 Q -23.927 846.603 -19.685 835.177 Q -15.442 823.751 -11.451 813.220 Q -7.459 802.690 -0.803 782.654 Q 5.854 762.618 9.417 751.154 Q 12.981 739.691 16.995 723.833 Q 21.010 707.976 22.800 698.807 Q 24.589 689.637 25.339 684.913 Q 26.088 680.189 26.899 675.371 Q 27.711 670.553 29.151 658.166 Q 30.592 645.779 31.009 638.423 Q 31.426 631.066 31.446 625.405 Q 31.466 619.744 31.107 616.884 Q 30.747 614.024 30.220 614.450 Q 29.694 614.875 28.314 620.035 Q 26.935 625.194 22.577 648.010 Q 18.220 670.826 14.951 686.482 Q 11.683 702.137 9.435 711.192 Q 7.187 720.246 6.219 724.367 Q 5.250 728.488 0.595 745.779 Q -4.061 763.070 -10.385 781.941 Q -16.710 800.813 -20.169 809.951 Q -23.629 819.090 -25.627 824.139 Q -27.625 829.188 -30.390 835.624 Q -33.156 842.060 -35.070 846.931 Q -36.984 851.802 -44.600 868.203 Q -52.217 884.603 -57.374 894.244 Q -62.532 903.885 -65.998 909.879 Q -69.464 915.873 -72.523 921.286 Q -75.581 926.698 -82.688 937.615 Q -89.794 948.532 -94.081 954.326 Q -98.368 960.119 -102.477 965.261 Q -106.586 970.403 -110.289 975.298 Q -113.992 980.193 -118.387 983.551 Q -122.782 986.909 -124.244 986.757 Q -125.706 986.605 -123.381 979.939 Q -121.056 973.273 -118.219 967.267 Q -115.383 961.261 -113.703 958.143 Q -112.023 955.025 -103.627 939.080 Q -95.231 923.136 -88.920 910.608 Q -82.610 898.080 -79.479 891.990 Q -76.348 885.900 -69.374 871.175 Q -62.400 856.450 -57.545 845.327 Q -52.689 834.203 -50.076 828.069 Q -47.463 821.935 -42.202 809.175 Q -36.940 796.415 -30.309 778.496 Q -23.679 760.577 -19.837 749.335 Q -15.994 738.093 -14.214 733.060 Q -12.434 728.028 -8.090 714.016 Q -3.746 700.003 0.161 684.483 Q 4.068 668.962 5.879 661.303 Q 7.689 653.644 10.045 641.325 Q 12.401 629.005 12.837 620.344 Q 13.273 611.683 13.187 611.801 Q 13.102 611.919 12.155 618.857 Q 11.207 625.795 7.935 640.451 Q 4.662 655.108 2.739 662.940 Q 0.815 670.772 -0.298 675.862 Q -1.412 680.952 -6.358 699.631 Q -11.303 718.310 -14.910 730.438 Q -18.517 742.566 -20.818 750.013 Q -23.119 757.460 -27.850 771.251 Q -32.581 785.042 -38.230 799.573 Q -43.879 814.104 -50.825 830.403 Q -57.770 846.703 -65.674 862.522 Q -73.578 878.341 -77.574 885.944 Q -81.569 893.547 -85.321 900.334 Q -89.072 907.122 -94.904 916.950 Q -100.737 926.778 -104.013 931.868 Q -107.290 936.957 -109.667 941.155 Q -112.045 945.353 -120.226 956.449 Q -128.406 967.545 -133.490 974.489 Q -138.575 981.433 -141.618 983.891 Q -144.661 986.348 -145.409 985.557 Q -146.157 984.766 -133.883 964.301 Q -121.609 943.835 -113.985 931.008 Q -106.361 918.180 -99.992 906.767 Q -93.624 895.353 -89.864 888.076 Q -86.104 880.798 -79.944 868.913 Q -73.783 857.027 -65.231 837.036 Q -56.679 817.045 -52.754 806.891 Q -48.830 796.736 -45.201 786.614 Q -41.571 776.492 -37.558 764.709 Q -33.546 752.926 -29.868 740.873 Q -26.189 728.820 -24.425 722.561 Q -22.661 716.302 -20.843 710.719 Q -19.026 705.136 -14.559 686.916 Q -10.093 668.696 -7.850 659.301 Q -5.607 649.907 -4.144 641.000 Q -2.681 632.094 -2.250 627.971 Q -1.819 623.848 -1.890 623.844 Q -1.960 623.840 -1.792 624.320 Q -1.624 624.799 -3.742 638.462 Q -5.861 652.124 -7.709 660.256 Q -9.557 668.388 -12.646 681.296 Q -15.734 694.205 -18.279 703.314 Q -20.825 712.423 -22.957 720.323 Q -25.089 728.223 -29.360 741.858 Q -33.631 755.493 -38.322 768.666 Q -43.013 781.840 -46.698 791.411 Q -50.383 800.983 -52.337 805.822 Q -54.292 810.661 -55.829 814.207 Q -57.366 817.753 -59.217 822.246 Q -61.068 826.738 -68.405 842.957 Q -75.742 859.176 -85.946 878.908 Q -96.150 898.641 -102.955 910.790 Q -109.759 922.940 -113.003 928.663 Q -116.247 934.386 -119.375 939.872 Q -122.504 945.357 -124.991 949.697 Q -127.479 954.037 -130.733 959.826 Q -133.987 965.615 -138.731 974.198 Q -143.474 982.781 -145.277 987.417 Q -147.080 992.052 -145.902 992.254 Q -144.725 992.456 -134.383 978.368 Q -124.041 964.280 -118.602 955.872 Q -113.162 947.465 -110.160 942.846 Q -107.158 938.228 -100.286 926.205 Q -93.415 914.182 -89.825 907.542 Q -86.235 900.902 -84.115 896.897 Q -81.994 892.893 -77.307 883.683 Q -72.619 874.473 -68.207 865.323 Q -63.795 856.173 -58.866 844.611 Q -53.937 833.048 -51.551 827.152 Q -49.164 821.256 -46.768 814.868 Q -44.372 808.480 -40.266 797.773 Q -36.160 787.065 -31.248 768.149 Q -26.336 749.232 -24.092 739.425 Q -21.849 729.617 -21.007 724.876 Q -20.166 720.134 -19.297 716.072 Q -18.429 712.009 -15.860 696.568 Q -13.292 681.126 -12.319 669.295 Q -11.347 657.464 -11.622 652.542 Q -11.898 647.620 -12.335 648.078 Q -12.772 648.536 -16.868 663.232 Q -20.963 677.929 -25.045 691.179 Q -29.127 704.428 -31.483 711.865 Q -33.838 719.301 -35.071 723.158 Q -36.304 727.015 -38.893 734.213 Q -41.483 741.411 -42.918 745.567 Q -44.353 749.724 -50.868 766.611 Q -57.383 783.499 -63.786 798.664 Q -70.190 813.828 -76.483 827.607 Q -82.776 841.385 -86.352 848.688 Q -89.927 855.991 -91.548 859.586 Q -93.168 863.181 -101.460 879.025 Q -109.753 894.869 -115.461 904.752 Q -121.169 914.635 -130.028 931.823 Q -138.888 949.010 -138.563 949.433 Q -138.239 949.855 -134.458 945.257 Q -130.678 940.660 -125.700 933.687 Q -120.721 926.713 -118.296 922.998 Q -115.870 919.284 -112.903 914.580 Q -109.937 909.877 -108.680 907.687 Q -107.423 905.498 -102.983 898.385 Q -98.543 891.272 -90.054 874.565 Q -81.565 857.857 -77.572 848.799 Q -73.579 839.741 -71.521 835.014 Q -69.464 830.287 -65.087 819.425 Q -60.710 808.562 -56.742 797.076 Q -52.773 785.591 -50.816 780.014 Q -48.860 774.438 -44.243 757.899 Q -39.627 741.360 -37.253 730.552 Q -34.880 719.745 -33.475 713.371 Q -32.070 706.996 -29.851 693.994 Q -27.632 680.992 -26.535 670.454 Q -25.437 659.916 -25.355 652.026 Q -25.273 644.136 -25.811 640.907 Q -26.349 637.677 -26.703 638.030 Q -27.056 638.382 -29.216 646.197 Q -31.376 654.011 -33.151 660.479 Q -34.926 666.947 -36.660 672.723 Q -38.394 678.499 -41.551 687.573 Q -44.708 696.647 -48.305 706.162 Q -51.902 715.677 -57.577 729.680 Q -63.252 743.683 -69.776 758.320 Q -76.300 772.957 -80.084 780.902 Q -83.868 788.846 -85.560 792.416 Q -87.252 795.986 -91.645 804.259 Q -96.037 812.533 -99.271 818.651 Q -102.505 824.770 -110.870 839.786 Q -119.234 854.801 -130.394 872.281 Q -141.554 889.761 -146.972 898.000 Q -152.390 906.238 -159.068 916.031 Q -165.747 925.824 -169.501 931.083 Q -173.254 936.343 -173.113 936.287 Q -172.972 936.230 -162.988 920.285 Q -153.003 904.340 -147.223 894.328 Q -141.442 884.317 -138.669 879.271 Q -135.897 874.225 -134.016 870.713 Q -132.135 867.200 -127.694 858.603 Q -123.253 850.006 -115.914 834.075 Q -108.575 818.145 -102.096 802.642 Q -95.618 787.140 -92.163 778.258 Q -88.708 769.377 -85.889 762.235 Q -83.069 755.093 -77.330 738.871 Q -71.591 722.649 -67.740 709.457 Q -63.889 696.265 -62.243 689.683 Q -60.597 683.101 -58.853 676.012 Q -57.109 668.922 -55.220 660.425 Q -53.331 651.927 -52.208 644.137 Q -51.085 636.347 -51.084 636.599 Q -51.083 636.852 -52.421 646.260 Q -53.758 655.668 -58.999 674.862 Q -64.240 694.055 -70.215 711.416 Q -76.190 728.777 -80.368 739.292 Q -84.547 749.808 -86.497 754.694 Q -88.446 759.581 -93.176 770.890 Q -97.906 782.198 -105.505 798.700 Q -113.103 815.203 -117.077 823.441 Q -121.052 831.679 -126.625 842.507 Q -132.198 853.336 -137.342 862.714 Q -142.487 872.092 -146.338 878.734 Q -150.189 885.375 -153.486 890.631 Q -156.782 895.888 -158.785 899.288 Q -160.788 902.688 -167.345 911.788 Q -173.902 920.888 -174.126 920.435 Q -174.351 919.983 -171.272 914.022 Q -168.193 908.061 -162.962 898.820 Q -157.730 889.578 -153.632 882.321 Q -149.534 875.064 -146.537 869.743 Q -143.539 864.422 -134.600 846.874 Q -125.661 829.326 -117.976 812.284 Q -110.292 795.242 -106.114 785.251 Q -101.936 775.260 -97.810 765.301 Q -93.683 755.342 -87.431 737.929 Q -81.179 720.517 -77.488 708.606 Q -73.797 696.695 -71.195 687.325 Q -68.593 677.954 -67.134 672.860 Q -65.674 667.767 -62.161 652.207 Q -58.648 636.648 -56.373 625.431 Q -54.097 614.213 -52.707 599.929 Q -51.316 585.645 -51.431 585.979 Q -51.546 586.313 -57.296 607.743 Q -63.046 629.173 -66.455 641.298 Q -69.863 653.423 -75.620 671.066 Q -81.377 688.709 -84.820 698.129 Q -88.264 707.549 -90.191 712.671 Q -92.118 717.794 -93.955 722.508 Q -95.791 727.222 -97.224 730.764 Q -98.657 734.305 -99.461 736.424 Q -100.264 738.544 -103.976 747.373 Q -107.687 756.202 -110.708 763.142 Q -113.730 770.082 -119.255 781.865 Q -124.780 793.649 -127.798 799.725 Q -130.816 805.800 -134.443 812.684 Q -138.071 819.568 -140.082 823.280 Q -142.093 826.991 -145.296 832.710 Q -148.499 838.429 -154.099 848.427 Q -159.698 858.424 -170.515 875.327 Q -181.332 892.230 -181.544 892.218 Q -181.757 892.207 -182.017 891.841 Q -182.278 891.476 -172.273 874.013 Q -162.268 856.550 -155.009 843.214 Q -147.749 829.879 -144.326 822.910 Q -140.902 815.940 -138.481 810.716 Q -136.060 805.492 -133.280 799.446 Q -130.500 793.400 -124.489 778.300 Q -118.478 763.200 -113.493 748.665 Q -108.508 734.130 -104.669 720.376 Q -100.831 706.623 -99.020 699.592 Q -97.210 692.562 -94.512 681.171 Q -91.815 669.781 -90.493 663.576 Q -89.170 657.371 -88.406 653.314 Q -87.641 649.256 -86.881 646.451 Q -86.122 643.645 -84.354 632.602 Q -82.587 621.558 -81.773 615.316 Q -80.960 609.073 -80.738 605.127 Q -80.516 601.182 -80.422 598.809 Q -80.327 596.437 -80.299 595.013 Q -80.271 593.588 -80.289 591.879 Q -80.307 590.169 -80.481 588.604 Q -80.656 587.038 -80.789 587.464 Q -80.921 587.890 -81.554 594.747 Q -82.187 601.604 -85.992 616.427 Q -89.797 631.250 -93.035 641.452 Q -96.273 651.654 -97.769 656.481 Q -99.264 661.309 -100.310 664.585 Q -101.357 667.860 -103.675 675.219 Q -105.992 682.577 -110.565 695.894 Q -115.139 709.210 -117.746 716.674 Q -120.353 724.138 -122.195 729.467 Q -124.038 734.796 -130.036 750.086 Q -136.035 765.375 -139.438 773.550 Q -142.840 781.725 -144.083 785.124 Q -145.326 788.522 -155.720 812.785 Q -166.114 837.047 -172.483 852.136 Q -178.852 867.226 -178.514 867.150 Q -178.176 867.074 -172.592 858.742 Q -167.009 850.410 -159.757 836.202 Q -152.506 821.994 -149.099 814.670 Q -145.692 807.345 -143.756 802.655 Q -141.820 797.965 -139.767 793.287 Q -137.714 788.608 -130.370 769.745 Q -123.026 750.882 -116.923 732.752 Q -110.820 714.621 -107.823 704.439 Q -104.826 694.256 -103.370 688.879 Q -101.913 683.501 -100.863 679.866 Q -99.813 676.231 -96.545 663.515 Q -93.276 650.800 -91.167 639.399 Q -89.058 627.998 -88.301 621.269 Q -87.544 614.540 -87.547 610.718 Q -87.550 606.896 -87.650 606.868 Q -87.750 606.840 -87.730 607.368 Q -87.711 607.896 -88.438 612.734 Q -89.165 617.571 -89.817 621.172 Q -90.468 624.774 -92.561 632.505 Q -94.654 640.237 -97.734 650.792 Q -100.813 661.346 -102.386 666.784 Q -103.958 672.222 -109.200 688.753 Q -114.442 705.285 -117.578 714.441 Q -120.713 723.597 -122.284 728.224 Q -123.856 732.852 -127.654 743.065 Q -131.452 753.278 -134.079 759.978 Q -136.706 766.679 -139.285 773.166 Q -141.864 779.653 -144.045 785.324 Q -146.225 790.996 -151.655 804.058 Q -157.084 817.120 -160.401 824.535 Q -163.718 831.950 -165.757 836.472 Q -167.795 840.994 -169.477 844.629 Q -171.158 848.263 -176.197 859.076 Q -181.235 869.889 -181.096 869.727 Q -180.957 869.565 -173.407 854.916 Q -165.857 840.267 -159.135 824.291 Q -152.412 808.315 -149.227 800.307 Q -146.042 792.299 -143.617 785.649 Q -141.193 778.999 -137.341 767.531 Q -133.490 756.063 -130.878 747.953 Q -128.265 739.844 -125.738 731.422 Q -123.210 723.001 -121.810 718.122 Q -120.410 713.243 -117.694 703.026 Q -114.979 692.810 -112.844 684.179 Q -110.709 675.548 -109.272 669.436 Q -107.835 663.324 -106.701 657.571 Q -105.567 651.818 -104.973 648.511 Q -104.378 645.204 -103.227 638.264 Q -102.076 631.324 -101.208 621.568 Q -100.341 611.812 -100.088 605.025 Q -99.835 598.237 -101.044 592.365 Q -102.252 586.493 -102.327 586.240 Q -102.401 585.987 -103.569 587.182 Q -104.737 588.377 -107.196 595.588 Q -109.655 602.800 -112.155 610.760 Q -114.655 618.719 -116.078 623.207 Q -117.502 627.694 -119.988 635.918 Q -122.474 644.142 -126.958 657.967 Q -131.441 671.791 -134.415 680.620 Q -137.389 689.449 -144.117 708.427 Q -150.844 727.405 -154.553 737.157 Q -158.263 746.909 -162.799 759.015 Q -167.335 771.121 -170.251 778.572 Q -173.167 786.023 -174.639 789.733 Q -176.111 793.444 -177.708 797.319 Q -179.306 801.194 -184.574 813.916 Q -189.842 826.638 -198.866 846.831 Q -207.889 867.023 -208.111 867.022 Q -208.332 867.021 -208.639 866.199 Q -208.946 865.377 -199.802 844.999 Q -190.658 824.621 -183.404 806.542 Q -176.151 788.463 -172.732 778.486 Q -169.312 768.509 -166.820 761.749 Q -164.329 754.989 -159.179 739.038 Q -154.030 723.087 -151.227 713.369 Q -148.424 703.650 -146.689 697.074 Q -144.953 690.499 -144.080 686.781 Q -143.206 683.063 -142.179 678.830 Q -141.152 674.596 -139.219 664.477 Q -137.285 654.359 -136.129 645.875 Q -134.972 637.391 -134.456 633.033 Q -133.939 628.675 -133.363 624.792 Q -132.787 620.910 -132.897 612.944 Q -133.008 604.978 -133.507 605.104 Q -134.006 605.231 -140.608 624.421 Q -147.211 643.610 -152.779 658.471 Q -158.346 673.333 -161.265 680.973 Q -164.184 688.613 -166.907 695.199 Q -169.631 701.786 -171.396 706.538 Q -173.162 711.290 -180.637 728.259 Q -188.111 745.227 -192.609 754.595 Q -197.107 763.963 -199.997 769.750 Q -202.887 775.537 -209.781 787.974 Q -216.675 800.410 -216.800 800.324 Q -216.925 800.238 -216.984 799.733 Q -217.044 799.229 -211.968 787.221 Q -206.893 775.213 -202.087 762.823 Q -197.280 750.433 -194.021 741.419 Q -190.763 732.406 -184.421 711.682 Q -178.079 690.959 -174.776 679.008 Q -171.473 667.057 -169.779 660.802 Q -168.084 654.547 -166.974 650.242 Q -165.863 645.938 -164.160 639.427 Q -162.458 632.915 -160.793 626.319 Q -159.128 619.722 -152.571 596.052 Q -146.014 572.381 -145.287 572.881 Q -144.560 573.381 -146.894 587.493 Q -149.227 601.605 -151.038 609.450 Q -152.848 617.296 -154.306 623.251 Q -155.763 629.206 -157.126 634.516 Q -158.489 639.826 -160.063 645.520 Q -161.637 651.213 -164.172 660.007 Q -166.707 668.802 -172.043 685.249 Q -177.379 701.697 -182.294 714.708 Q -187.210 727.719 -189.742 734.565 Q -192.274 741.412 -198.532 755.691 Q -204.789 769.971 -210.413 781.092 Q -216.037 792.214 -220.883 799.766 Q -225.728 807.319 -225.941 806.703 Q -226.154 806.087 -218.650 789.860 Q -211.145 773.633 -207.498 765.114 Q -203.850 756.594 -201.161 749.875 Q -198.472 743.156 -193.726 729.671 Q -188.979 716.186 -186.613 709.106 Q -184.246 702.026 -182.840 697.956 Q -181.433 693.886 -179.802 688.789 Q -178.171 683.692 -176.531 679.170 Q -174.890 674.647 -170.163 659.784 Q -165.435 644.921 -163.217 637.016 Q -160.998 629.112 -159.626 623.384 Q -158.254 617.656 -157.492 613.076 Q -156.730 608.495 -156.768 608.481 Q -156.806 608.468 -156.728 609.418 Q -156.649 610.369 -160.513 622.076 Q -164.377 633.783 -169.061 644.608 Q -173.745 655.432 -185.028 679.964 Q -196.312 704.496 -202.120 716.933 Q -207.928 729.371 -210.965 736.403 Q -214.003 743.435 -216.457 748.973 Q -218.911 754.510 -221.794 763.354 Q -224.677 772.198 -224.209 771.661 Q -223.742 771.124 -217.854 758.529 Q -211.966 745.934 -206.153 730.786 Q -200.340 715.637 -195.771 700.760 Q -191.201 685.883 -187.791 673.260 Q -184.381 660.637 -181.832 650.251 Q -179.283 639.865 -177.701 633.020 Q -176.120 626.176 -174.262 617.476 Q -172.404 608.776 -171.422 602.463 Q -170.441 596.149 -170.032 591.644 Q -169.623 587.138 -169.629 583.713 Q -169.634 580.287 -170.154 578.328 Q -170.674 576.370 -171.241 576.119 Q -171.809 575.868 -176.369 589.121 Q -180.928 602.374 -188.002 621.223 Q -195.075 640.071 -198.786 649.907 Q -202.497 659.743 -205.855 668.539 Q -209.212 677.335 -213.056 687.951 Q -216.900 698.567 -222.348 711.353 Q -227.796 724.140 -230.866 730.455 Q -233.937 736.771 -236.108 741.050 Q -238.279 745.329 -239.879 746.756 Q -241.479 748.183 -242.207 747.370 Q -242.935 746.556 -240.799 737.023 Q -238.663 727.490 -235.121 715.389 Q -231.580 703.287 -228.320 692.227 Q -225.060 681.167 -222.270 671.498 Q -219.480 661.829 -218.027 656.603 Q -216.575 651.376 -213.167 639.688 Q -209.760 628.000 -204.389 605.963 Q -199.018 583.926 -198.955 584.011 Q -198.892 584.095 -199.173 586.114 Q -199.454 588.133 -200.412 592.645 Q -201.370 597.157 -203.188 603.260 Q -205.006 609.364 -205.852 612.768 Q -206.698 616.171 -211.874 631.471 Q -217.050 646.770 -220.136 654.722 Q -223.223 662.675 -226.246 670.160 Q -229.270 677.645 -231.363 682.591 Q -233.456 687.537 -238.160 698.018 Q -242.864 708.498 -246.042 714.991 Q -249.220 721.484 -249.734 721.240 Q -250.247 720.996 -246.389 709.159 Q -242.531 697.322 -239.611 688.317 Q -236.691 679.312 -232.286 661.267 Q -227.881 643.222 -224.727 630.230 Q -221.574 617.238 -218.983 603.820 Q -216.392 590.402 -216.550 590.603 Q -216.708 590.804 -217.878 596.885 Q -219.048 602.967 -221.770 611.248 Q -224.491 619.529 -229.151 630.720 Q -233.811 641.911 -237.980 651.265 Q -242.149 660.619 -246.158 668.445 Q -250.167 676.271 -252.782 680.814 Q -255.396 685.358 -257.338 687.249 Q -259.280 689.140 -261.252 688.765 Q -263.224 688.391 -259.256 671.565 Q -255.287 654.739 -253.096 645.042 Q -250.905 635.345 -249.870 630.400 Q -248.834 625.455 -248.350 623.272 Q -247.867 621.089 -246.694 615.003 Q -245.522 608.916 -242.525 596.835 Q -239.528 584.754 -239.146 585.317 Q -238.765 585.880 -243.823 600.597 Q -248.881 615.313 -253.627 625.909 Q -258.372 636.505 -261.936 643.838 Q -265.500 651.171 -267.177 654.915 Q -268.854 658.658 -273.588 667.081 Q -278.321 675.503 -281.257 680.724 Q -284.192 685.945 -286.100 687.756 Q -288.007 689.567 -288.939 688.843 Q -289.872 688.119 -284.581 667.570 Q -279.290 647.021 -275.534 634.754 Q -271.778 622.488 -270.052 617.369 Q -268.327 612.250 -264.970 604.204 Q -261.614 596.157 -259.645 592.480 Q -257.677 588.803 -257.322 589.651 Q -256.968 590.499 -262.964 601.537 Q -268.960 612.576 -275.154 622.307 Q -281.347 632.037 -284.691 635.536 Q -288.035 639.035 -289.966 638.573 Q -291.896 638.112 -288.657 624.519 Q -285.418 610.927 -284.962 610.884 Q -284.507 610.841 -283.887 611.102 "></path>
  </g>
  <g id="New_Layer_3" opacity="1.000">
    <path id="STROKE_48ea15e1-68f0-4938-8e1d-38f4a704c4ce" opacity="0.700" fill="none" stroke="#00939f" stroke-width="10.800" stroke-opacity="0.700" stroke-linecap="round" stroke-linejoin="round" d="M 507.747 716.356 Q 507.064 716.339 508.964 716.172 Q 510.865 716.004 511.097 720.098 Q 511.329 724.191 511.546 724.429 Q 511.763 724.667 509.423 717.325 Q 507.082 709.983 503.333 702.074 Q 499.585 694.164 495.335 687.388 Q 491.086 680.612 488.536 677.865 Q 485.986 675.118 484.422 675.919 Q 482.859 676.719 485.480 687.993 Q 488.102 699.267 489.987 714.584 Q 491.872 729.902 492.579 737.866 Q 493.286 745.830 493.816 751.698 Q 494.346 757.566 494.776 760.874 Q 495.205 764.181 496.679 777.662 Q 498.154 791.142 498.460 805.479 Q 498.766 819.815 498.506 828.113 Q 498.246 836.410 497.653 839.281 Q 497.060 842.152 496.981 842.040 Q 496.902 841.928 496.195 838.673 Q 495.489 835.419 493.428 822.651 Q 491.367 809.883 490.210 802.232 Q 489.052 794.582 488.059 789.513 Q 487.065 784.444 485.300 774.967 Q 483.535 765.490 481.262 750.494 Q 478.989 735.497 477.725 727.072 Q 476.461 718.646 473.927 705.881 Q 471.393 693.116 467.332 681.331 Q 463.271 669.546 462.650 670.238 Q 462.029 670.930 463.101 679.040 Q 464.173 687.151 465.435 694.490 Q 466.697 701.829 467.408 706.720 Q 468.120 711.611 469.475 722.521 Q 470.830 733.431 472.075 746.732 Q 473.321 760.033 473.998 767.045 Q 474.676 774.056 475.410 780.376 Q 476.144 786.695 476.855 794.362 Q 477.566 802.028 478.025 806.211 Q 478.483 810.394 479.193 821.398 Q 479.902 832.402 479.854 843.977 Q 479.805 855.551 479.497 870.333 Q 479.190 885.115 478.942 894.073 Q 478.694 903.032 477.652 907.028 Q 476.610 911.023 474.951 910.703 Q 473.292 910.382 469.956 889.045 Q 466.621 867.709 465.098 855.005 Q 463.575 842.300 462.686 835.817 Q 461.797 829.334 461.249 825.565 Q 460.701 821.796 460.431 819.716 Q 460.161 817.637 458.295 805.080 Q 456.428 792.524 454.986 783.994 Q 453.543 775.465 452.274 768.519 Q 451.005 761.574 449.649 754.112 Q 448.293 746.650 446.837 738.033 Q 445.380 729.416 444.346 724.061 Q 443.312 718.705 441.194 706.130 Q 439.075 693.554 437.458 683.335 Q 435.841 673.115 435.538 672.557 Q 435.235 671.998 434.933 677.983 Q 434.631 683.968 435.907 698.312 Q 437.182 712.655 438.186 720.260 Q 439.190 727.865 441.003 744.866 Q 442.816 761.867 443.662 776.954 Q 444.507 792.041 444.688 799.644 Q 444.870 807.246 445.148 811.167 Q 445.427 815.089 445.600 839.734 Q 445.774 864.379 445.555 878.611 Q 445.336 892.843 445.104 901.071 Q 444.871 909.299 444.682 917.540 Q 444.493 925.781 444.249 933.655 Q 444.005 941.528 444.278 948.431 Q 444.550 955.333 445.904 954.981 Q 447.259 954.629 448.624 925.060 Q 449.990 895.491 450.336 878.949 Q 450.682 862.408 450.840 854.934 Q 450.997 847.460 450.899 836.046 Q 450.800 824.633 450.806 818.604 Q 450.812 812.574 450.246 794.014 Q 449.679 775.454 448.870 755.436 Q 448.060 735.417 447.759 724.271 Q 447.458 713.126 447.130 705.545 Q 446.801 697.963 446.681 692.205 Q 446.561 686.447 446.196 674.113 Q 445.831 661.779 444.908 654.657 Q 443.985 647.535 443.203 647.950 Q 442.421 648.366 442.412 666.523 Q 442.403 684.679 442.655 695.547 Q 442.906 706.414 443.165 717.732 Q 443.424 729.050 443.768 738.611 Q 444.112 748.171 444.441 766.100 Q 444.770 784.028 444.860 793.469 Q 444.951 802.910 444.880 821.525 Q 444.809 840.140 444.541 855.907 Q 444.274 871.675 444.047 881.666 Q 443.820 891.657 443.544 897.766 Q 443.269 903.876 443.066 909.586 Q 442.864 915.296 442.638 923.118 Q 442.413 930.940 442.070 941.619 Q 441.727 952.298 441.633 952.160 Q 441.539 952.022 441.495 938.710 Q 441.451 925.399 440.962 910.998 Q 440.473 896.596 440.166 889.261 Q 439.859 881.926 439.312 870.949 Q 438.765 859.971 438.501 852.613 Q 438.237 845.255 437.446 828.617 Q 436.655 811.978 435.456 796.076 Q 434.257 780.174 432.919 761.790 Q 431.582 743.406 430.947 734.113 Q 430.312 724.821 429.966 720.860 Q 429.620 716.899 429.244 712.199 Q 428.869 707.500 426.880 681.391 Q 424.891 655.282 423.358 639.130 Q 421.824 622.979 420.854 614.405 Q 419.883 605.832 418.487 602.079 Q 417.090 598.326 415.523 598.395 Q 413.957 598.464 411.466 607.102 Q 408.976 615.740 408.381 623.669 Q 407.786 631.597 407.541 638.314 Q 407.295 645.030 407.252 648.501 Q 407.209 651.972 407.052 661.715 Q 406.895 671.459 406.589 681.230 Q 406.283 691.002 405.992 701.022 Q 405.701 711.043 405.383 720.444 Q 405.065 729.846 404.840 735.953 Q 404.615 742.060 404.399 747.323 Q 404.182 752.585 403.808 762.221 Q 403.433 771.858 403.190 778.870 Q 402.946 785.882 402.729 791.410 Q 402.512 796.939 402.178 804.509 Q 401.843 812.079 401.492 820.645 Q 401.141 829.211 400.803 840.407 Q 400.465 851.604 400.242 859.216 Q 400.019 866.829 399.915 871.528 Q 399.810 876.227 399.463 889.021 Q 399.116 901.815 398.249 913.545 Q 397.382 925.275 395.993 937.000 Q 394.605 948.725 394.426 948.741 Q 394.246 948.756 394.225 947.919 Q 394.205 947.082 393.564 930.849 Q 392.924 914.616 391.722 889.579 Q 390.520 864.542 389.968 852.247 Q 389.415 839.953 389.047 834.411 Q 388.679 828.870 387.718 807.047 Q 386.757 785.224 386.154 769.150 Q 385.550 753.076 385.047 743.218 Q 384.543 733.361 384.294 727.631 Q 384.045 721.901 383.874 718.759 Q 383.703 715.617 382.717 698.781 Q 381.732 681.944 381.281 672.137 Q 380.829 662.331 380.764 656.627 Q 380.698 650.924 380.352 646.698 Q 380.006 642.471 378.856 642.487 Q 377.705 642.504 375.418 656.432 Q 373.131 670.360 372.574 681.439 Q 372.017 692.517 371.948 701.020 Q 371.879 709.523 371.330 724.750 Q 370.780 739.977 370.475 747.893 Q 370.170 755.809 369.911 759.724 Q 369.653 763.640 368.777 780.611 Q 367.901 797.582 367.508 810.835 Q 367.116 824.089 366.821 833.249 Q 366.525 842.409 366.291 848.589 Q 366.056 854.769 365.110 875.630 Q 364.165 896.492 363.730 913.697 Q 363.295 930.903 363.218 940.433 Q 363.141 949.964 363.233 954.493 Q 363.326 959.021 363.006 968.302 Q 362.687 977.583 362.146 985.316 Q 361.606 993.049 361.097 1000.657 Q 360.588 1008.266 360.897 1007.896 Q 361.205 1007.526 361.943 1000.332 Q 362.680 993.138 363.210 987.401 Q 363.740 981.664 363.952 977.465 Q 364.164 973.265 364.345 968.060 Q 364.525 962.855 364.656 952.601 Q 364.787 942.347 364.884 929.104 Q 364.980 915.861 365.074 909.067 Q 365.169 902.272 365.332 892.657 Q 365.495 883.041 365.443 866.493 Q 365.391 849.945 365.513 831.845 Q 365.635 813.744 365.621 795.801 Q 365.607 777.858 365.408 768.351 Q 365.209 758.844 365.098 747.816 Q 364.988 736.788 364.953 731.017 Q 364.918 725.246 364.903 721.521 Q 364.887 717.796 364.890 715.372 Q 364.892 712.947 364.742 706.463 Q 364.591 699.978 364.292 686.006 Q 363.992 672.034 364.175 659.929 Q 364.358 647.824 363.844 648.683 Q 363.329 649.541 363.419 661.840 Q 363.510 674.138 364.287 683.746 Q 365.063 693.354 365.586 698.658 Q 366.108 703.962 366.316 706.913 Q 366.525 709.864 367.177 718.366 Q 367.829 726.869 368.265 741.183 Q 368.701 755.498 368.854 762.985 Q 369.007 770.473 369.008 774.122 Q 369.008 777.771 369.161 789.075 Q 369.314 800.379 369.378 818.317 Q 369.441 836.255 369.425 845.112 Q 369.409 853.969 369.231 864.461 Q 369.053 874.953 368.546 886.782 Q 368.039 898.610 367.827 904.761 Q 367.614 910.912 367.478 927.573 Q 367.341 944.234 367.223 953.089 Q 367.104 961.944 366.951 967.010 Q 366.798 972.075 366.172 980.341 Q 365.547 988.606 365.180 993.215 Q 364.813 997.823 365.580 997.756 Q 366.347 997.689 366.888 976.262 Q 367.429 954.836 367.378 943.148 Q 367.327 931.459 367.297 926.013 Q 367.266 920.568 367.356 909.978 Q 367.445 899.388 367.493 892.976 Q 367.540 886.564 367.553 879.753 Q 367.567 872.941 367.566 868.860 Q 367.566 864.778 367.532 859.670 Q 367.497 854.563 367.502 851.887 Q 367.507 849.210 367.363 832.804 Q 367.219 816.397 366.979 804.598 Q 366.739 792.799 366.490 784.998 Q 366.241 777.197 366.043 772.366 Q 365.845 767.535 365.375 757.261 Q 364.905 746.986 364.562 738.746 Q 364.219 730.506 363.596 715.676 Q 362.974 700.847 362.435 690.777 Q 361.897 680.708 361.498 675.084 Q 361.100 669.461 360.780 658.144 Q 360.461 646.827 359.861 637.638 Q 359.261 628.450 358.520 629.093 Q 357.780 629.737 357.014 654.258 Q 356.249 678.778 356.172 693.959 Q 356.096 709.140 355.972 716.527 Q 355.848 723.913 355.669 732.149 Q 355.490 740.385 355.255 749.193 Q 355.019 758.001 354.257 775.740 Q 353.494 793.479 352.353 813.787 Q 351.213 834.095 348.773 872.495 Q 346.333 910.896 345.115 932.581 Q 343.897 954.267 343.266 965.636 Q 342.635 977.005 342.188 981.343 Q 341.742 985.680 342.365 985.293 Q 342.989 984.907 342.691 961.909 Q 342.392 938.911 341.942 926.580 Q 341.491 914.250 341.379 907.713 Q 341.267 901.176 341.173 897.163 Q 341.080 893.151 340.898 885.333 Q 340.716 877.514 340.471 868.253 Q 340.225 858.992 339.833 845.069 Q 339.440 831.145 339.018 821.736 Q 338.596 812.328 338.320 806.977 Q 338.044 801.626 337.907 798.783 Q 337.770 795.940 337.354 787.886 Q 336.937 779.832 336.378 767.529 Q 335.819 755.226 335.058 737.385 Q 334.298 719.543 334.198 709.480 Q 334.099 699.417 333.351 688.005 Q 332.604 676.592 330.953 670.868 Q 329.303 665.144 327.418 665.439 Q 325.532 665.735 324.237 690.866 Q 322.942 715.997 322.601 737.950 Q 322.259 759.903 322.159 770.212 Q 322.059 780.521 321.890 785.446 Q 321.721 790.372 321.714 792.679 Q 321.706 794.987 321.046 813.309 Q 320.387 831.632 319.767 843.389 Q 319.147 855.146 318.622 865.273 Q 318.098 875.399 317.003 894.297 Q 315.908 913.196 314.840 926.461 Q 313.772 939.727 313.031 947.251 Q 312.290 954.776 311.635 959.389 Q 310.979 964.002 308.818 989.621 Q 306.656 1015.240 306.618 1015.236 Q 306.580 1015.232 306.487 1014.887 Q 306.394 1014.543 306.726 993.501 Q 307.058 972.460 307.571 949.417 Q 308.085 926.374 307.883 915.136 Q 307.682 903.899 307.693 898.154 Q 307.704 892.409 307.666 881.889 Q 307.628 871.370 306.063 833.158 Q 304.497 794.945 303.768 775.561 Q 303.038 756.177 302.560 746.056 Q 302.082 735.935 301.900 731.083 Q 301.718 726.231 301.519 719.155 Q 301.321 712.078 301.189 699.312 Q 301.057 686.545 300.457 674.563 Q 299.858 662.582 299.534 663.010 Q 299.210 663.438 299.150 673.200 Q 299.090 682.963 299.424 707.173 Q 299.759 731.383 300.045 747.962 Q 300.330 764.540 300.443 772.541 Q 300.555 780.541 300.533 794.898 Q 300.512 809.255 300.306 818.616 Q 300.100 827.978 299.671 853.993 Q 299.242 880.009 299.139 893.429 Q 299.037 906.849 299.003 918.767 Q 298.970 930.685 298.912 936.787 Q 298.853 942.889 298.618 952.685 Q 298.384 962.480 298.161 971.913 Q 297.939 981.346 298.695 986.389 Q 299.450 991.433 301.101 992.054 Q 302.751 992.675 304.222 970.326 Q 305.692 947.977 305.907 935.644 Q 306.122 923.311 306.070 917.794 Q 306.019 912.276 305.893 901.733 Q 305.767 891.189 305.565 882.711 Q 305.362 874.232 305.239 868.220 Q 305.116 862.208 305.038 859.017 Q 304.960 855.826 304.875 852.015 Q 304.790 848.205 304.334 835.597 Q 303.877 822.989 303.393 810.660 Q 302.908 798.332 302.662 791.649 Q 302.416 784.965 302.358 781.630 Q 302.301 778.296 301.593 761.107 Q 300.886 743.918 300.321 724.786 Q 299.755 705.654 299.619 696.053 Q 299.484 686.452 299.410 678.807 Q 299.336 671.162 298.302 659.014 Q 297.268 646.866 295.540 646.978 Q 293.811 647.090 293.906 677.352 Q 294.001 707.613 294.369 723.654 Q 294.736 739.694 294.853 749.053 Q 294.971 758.413 295.018 762.809 Q 295.065 767.205 295.018 779.003 Q 294.970 790.800 294.847 801.307 Q 294.724 811.814 294.582 819.182 Q 294.440 826.549 294.347 830.750 Q 294.255 834.951 294.153 839.535 Q 294.051 844.120 293.586 858.447 Q 293.120 872.774 292.773 880.551 Q 292.426 888.328 292.511 892.149 Q 292.597 895.969 291.478 915.148 Q 290.359 934.327 289.626 944.165 Q 288.893 954.002 287.990 962.549 Q 287.086 971.095 285.429 984.609 Q 283.772 998.123 281.897 1006.330 Q 280.021 1014.538 279.496 1014.478 Q 278.971 1014.419 278.748 991.854 Q 278.526 969.289 278.250 952.884 Q 277.974 936.478 277.918 928.836 Q 277.862 921.194 277.727 912.228 Q 277.591 903.262 277.492 898.911 Q 277.393 894.561 277.235 888.369 Q 277.077 882.177 276.646 870.132 Q 276.214 858.086 276.083 850.349 Q 275.951 842.611 274.979 824.110 Q 274.008 805.609 273.335 795.686 Q 272.663 785.764 272.363 781.297 Q 272.064 776.831 269.788 750.920 Q 267.512 725.009 266.255 710.997 Q 264.998 696.985 264.303 690.880 Q 263.608 684.775 262.839 677.985 Q 262.069 671.195 260.698 659.190 Q 259.327 647.184 258.271 635.969 Q 257.215 624.755 254.854 608.616 Q 252.492 592.476 251.695 593.207 Q 250.897 593.938 249.992 602.079 Q 249.086 610.221 249.646 624.767 Q 250.207 639.313 250.744 648.894 Q 251.280 658.474 251.650 668.532 Q 252.020 678.590 252.220 683.484 Q 252.419 688.378 252.625 694.095 Q 252.830 699.812 253.081 707.476 Q 253.332 715.140 253.585 726.173 Q 253.838 737.205 253.761 756.373 Q 253.685 775.542 253.572 792.442 Q 253.458 809.342 253.438 818.414 Q 253.417 827.486 253.174 837.356 Q 252.931 847.225 252.578 860.076 Q 252.225 872.928 251.938 883.709 Q 251.650 894.491 251.521 899.923 Q 251.391 905.355 251.256 908.781 Q 251.120 912.207 250.467 925.410 Q 249.814 938.613 249.413 951.328 Q 249.011 964.044 248.866 972.840 Q 248.720 981.637 248.374 991.602 Q 248.028 1001.568 249.058 1001.561 Q 250.089 1001.553 251.030 978.233 Q 251.972 954.913 252.147 941.782 Q 252.323 928.651 252.677 922.204 Q 253.030 915.756 253.151 910.605 Q 253.272 905.453 253.494 894.465 Q 253.716 883.477 253.817 876.857 Q 253.919 870.238 253.968 866.125 Q 254.016 862.012 254.087 859.647 Q 254.157 857.282 254.432 844.636 Q 254.706 831.990 254.678 822.844 Q 254.650 813.697 254.269 795.854 Q 253.888 778.010 253.676 765.233 Q 253.464 752.455 253.348 743.002 Q 253.233 733.549 253.119 727.775 Q 253.006 722.002 252.742 713.620 Q 252.478 705.238 252.296 700.149 Q 252.115 695.061 251.693 683.738 Q 251.272 672.415 250.898 661.292 Q 250.525 650.168 250.352 644.453 Q 250.178 638.737 249.689 623.067 Q 249.199 607.396 248.700 599.690 Q 248.201 591.984 247.774 592.206 Q 247.347 592.429 247.146 606.477 Q 246.945 620.525 247.601 638.191 Q 248.257 655.857 248.507 664.814 Q 248.758 673.771 249.093 681.434 Q 249.429 689.096 249.855 710.309 Q 250.280 731.523 250.222 745.213 Q 250.164 758.902 249.934 779.699 Q 249.704 800.495 249.525 811.055 Q 249.346 821.615 249.228 827.858 Q 249.110 834.100 248.682 851.764 Q 248.254 869.427 247.805 884.404 Q 247.357 899.380 247.000 906.833 Q 246.643 914.285 246.430 918.922 Q 246.217 923.558 245.881 929.065 Q 245.546 934.571 245.046 948.899 Q 244.546 963.227 245.560 972.102 Q 246.574 980.977 247.601 980.979 Q 248.628 980.982 250.081 966.277 Q 251.535 951.573 252.121 943.081 Q 252.708 934.590 253.204 928.722 Q 253.699 922.855 253.946 919.289 Q 254.192 915.722 254.384 913.468 Q 254.576 911.214 255.280 896.209 Q 255.985 881.204 256.166 859.753 Q 256.348 838.302 254.687 801.058 Q 253.026 763.814 252.150 745.456 Q 251.273 727.098 250.874 719.201 Q 250.475 711.305 250.071 706.197 Q 249.668 701.088 249.600 697.206 Q 249.532 693.323 248.408 679.227 Q 247.283 665.130 246.596 656.012 Q 245.908 646.894 244.742 643.280 Q 243.575 639.665 241.877 639.986 Q 240.180 640.306 239.274 659.964 Q 238.369 679.622 238.391 695.826 Q 238.414 712.029 238.428 720.103 Q 238.443 728.177 238.501 733.423 Q 238.559 738.669 238.503 759.291 Q 238.447 779.912 238.401 790.782 Q 238.356 801.651 238.357 808.750 Q 238.358 815.848 238.296 822.200 Q 238.234 828.553 238.243 840.673 Q 238.252 852.793 238.376 864.863 Q 238.501 876.933 238.183 893.907 Q 237.865 910.881 236.983 928.158 Q 236.101 945.436 236.496 945.524 Q 236.892 945.612 237.544 935.932 Q 238.196 926.252 238.469 919.590 Q 238.742 912.928 238.799 909.252 Q 238.856 905.575 238.898 902.122 Q 238.939 898.668 238.944 893.663 Q 238.949 888.658 238.846 881.371 Q 238.743 874.084 238.486 862.579 Q 238.228 851.073 237.957 842.182 Q 237.687 833.291 237.311 824.592 Q 236.935 815.893 236.545 807.301 Q 236.155 798.709 235.932 793.298 Q 235.710 787.888 235.098 772.688 Q 234.486 757.489 234.044 748.465 Q 233.603 739.441 233.062 731.440 Q 232.521 723.439 232.146 717.505 Q 231.770 711.571 230.967 700.716 Q 230.164 689.860 229.166 674.003 Q 228.169 658.146 227.696 649.940 Q 227.222 641.734 227.071 635.644 Q 226.919 629.555 226.643 623.284 Q 226.367 617.012 224.991 617.797 Q 223.615 618.581 223.940 641.045 Q 224.265 663.508 225.037 675.552 Q 225.810 687.595 226.070 693.741 Q 226.331 699.887 226.946 711.812 Q 227.560 723.737 227.269 744.924 Q 226.978 766.111 226.577 777.159 Q 226.176 788.206 225.866 796.502 Q 225.556 804.797 225.243 813.068 Q 224.930 821.339 224.290 829.977 Q 223.650 838.615 223.197 842.967 Q 222.744 847.320 221.932 855.228 Q 221.121 863.137 220.622 867.649 Q 220.124 872.161 218.866 882.621 Q 217.608 893.081 216.491 905.068 Q 215.374 917.055 215.396 916.888 Q 215.418 916.722 215.164 910.110 Q 214.911 903.499 214.756 886.576 Q 214.601 869.653 214.650 860.684 Q 214.699 851.715 214.544 845.924 Q 214.388 840.134 214.433 836.812 Q 214.477 833.491 213.840 821.516 Q 213.203 809.540 212.565 801.417 Q 211.927 793.294 211.512 788.543 Q 211.096 783.793 210.710 778.853 Q 210.323 773.913 209.701 763.447 Q 209.078 752.982 208.713 747.366 Q 208.348 741.751 208.047 738.141 Q 207.745 734.532 207.317 727.540 Q 206.889 720.549 205.695 713.107 Q 204.501 705.665 203.420 700.639 Q 202.338 695.613 200.562 691.947 Q 198.786 688.280 197.360 688.083 Q 195.934 687.886 195.762 705.528 Q 195.591 723.170 195.654 733.437 Q 195.716 743.703 195.540 752.649 Q 195.364 761.595 195.144 771.838 Q 194.924 782.081 194.904 789.535 Q 194.883 796.990 194.808 800.905 Q 194.733 804.820 194.847 812.752 Q 194.961 820.685 194.295 839.977 Q 193.629 859.269 192.746 870.522 Q 191.864 881.774 190.951 893.856 Q 190.038 905.937 189.357 911.256 Q 188.676 916.576 188.425 916.094 Q 188.174 915.611 187.781 903.678 Q 187.387 891.746 187.086 878.491 Q 186.785 865.237 186.593 858.467 Q 186.401 851.697 186.271 847.038 Q 186.142 842.380 185.842 835.275 Q 185.541 828.170 185.170 821.806 Q 184.800 815.442 184.334 804.307 Q 183.868 793.171 183.462 787.182 Q 183.056 781.193 182.153 761.018 Q 181.249 740.842 180.934 730.396 Q 180.618 719.950 180.405 714.237 Q 180.191 708.524 180.427 699.180 Q 180.663 689.836 180.399 690.153 Q 180.135 690.470 180.025 701.875 Q 179.915 713.279 180.133 722.113 Q 180.350 730.948 180.352 738.545 Q 180.353 746.142 180.390 756.572 Q 180.427 767.001 180.288 773.858 Q 180.150 780.714 179.356 792.772 Q 178.561 804.829 178.095 811.340 Q 177.630 817.851 177.046 825.504 Q 176.463 833.157 176.000 838.689 Q 175.537 844.221 174.278 856.513 Q 173.019 868.805 172.293 875.468 Q 171.567 882.130 170.970 886.081 Q 170.373 890.031 169.689 895.578 Q 169.006 901.125 169.238 900.482 Q 169.471 899.839 170.382 885.995 Q 171.292 872.151 170.962 852.129 Q 170.631 832.108 170.471 821.928 Q 170.311 811.748 169.955 804.288 Q 169.600 796.829 168.838 792.406 Q 168.076 787.982 166.468 785.756 Q 164.860 783.531 163.340 783.281 Q 161.820 783.031 158.986 788.147 Q 156.152 793.263 155.557 795.262 "></path>
  </g>
  <g id="New_Layer_5" opacity="1.000">
    <path id="STROKE_3471c695-6a1b-496b-9f40-f1751c61fe86" opacity="0.700" fill="none" stroke="#45b046" stroke-width="8.000" stroke-opacity="0.700" stroke-linecap="round" stroke-linejoin="round" d="M 97.928 761.466 Q 98.190 762.740 96.511 755.041 Q 96.448 755.041 96.385 755.041 Q 96.293 754.878 96.112 764.106 Q 95.930 773.335 94.900 783.797 Q 93.871 794.259 93.048 800.548 Q 92.226 806.837 89.634 817.582 Q 87.042 828.328 84.927 834.809 Q 82.812 841.290 78.275 857.698 L 78.401 857.792 Q 79.786 858.020 82.274 846.839 Q 84.762 835.657 86.780 827.473 Q 88.798 819.290 92.521 802.107 Q 96.245 784.925 98.399 774.121 Q 100.553 763.318 102.436 755.276 Q 104.319 747.234 108.952 726.011 Q 108.596 726.125 107.143 730.699 Q 105.691 735.274 104.299 740.549 Q 102.906 745.823 100.872 757.199 Q 98.838 768.574 97.808 780.119 Q 96.778 791.665 96.329 798.293 Q 95.881 804.921 95.566 822.793 Q 95.251 840.664 95.269 850.647 Q 95.287 860.630 95.284 866.049 Q 95.282 871.469 95.814 874.647 Q 96.346 877.824 98.023 880.421 Q 99.847 879.724 99.716 866.309 Q 99.586 852.893 100.178 839.349 Q 100.770 825.805 101.119 818.074 Q 101.468 810.344 102.176 799.301 Q 102.884 788.258 104.052 778.605 Q 105.220 768.953 105.905 763.143 Q 106.591 757.334 112.668 730.900 Q 112.158 731.106 109.814 740.489 Q 107.470 749.872 106.123 756.923 Q 104.775 763.974 103.798 770.135 Q 102.820 776.295 102.146 787.315 Q 101.473 798.334 101.385 804.144 Q 101.298 809.954 101.233 812.909 Q 101.167 815.865 101.117 825.901 Q 101.068 835.936 101.282 842.362 Q 101.496 848.788 102.527 854.344 L 103.030 854.344 Q 103.993 853.749 105.335 840.709 Q 106.677 827.670 109.709 808.648 Q 112.741 789.625 114.334 780.283 Q 115.927 770.942 117.330 762.928 Q 118.734 754.915 120.214 747.234 Q 121.694 739.553 123.439 732.079 Q 125.184 724.604 127.912 713.208 Q 126.919 713.132 124.179 721.703 Q 121.438 730.274 119.915 738.477 Q 118.392 746.680 117.551 750.928 Q 116.710 755.176 115.107 768.662 Q 113.503 782.149 112.957 789.894 Q 112.412 797.639 111.960 805.260 Q 111.508 812.882 111.236 823.377 Q 110.964 833.873 110.883 846.587 Q 110.802 859.302 111.723 871.847 L 112.070 871.894 Q 112.477 870.933 113.923 849.842 Q 115.368 828.751 117.045 814.093 Q 118.722 799.436 119.521 792.773 Q 120.321 786.111 121.292 780.088 Q 122.263 774.066 122.648 770.643 Q 123.033 767.221 125.532 755.265 Q 128.031 743.309 131.502 730.452 Q 131.723 730.657 129.537 737.435 Q 127.351 744.213 125.349 754.023 Q 123.347 763.834 122.352 769.012 Q 121.358 774.191 119.873 788.914 Q 118.388 803.637 117.262 819.224 Q 116.136 834.811 115.190 848.092 Q 114.245 861.372 114.054 872.178 Q 114.509 871.872 114.826 867.053 Q 115.143 862.234 116.481 846.834 Q 117.820 831.434 118.895 823.339 Q 119.971 815.244 120.533 810.586 Q 121.095 805.927 122.818 795.451 Q 124.541 784.975 125.541 779.421 Q 126.541 773.867 128.922 763.868 Q 131.303 753.869 134.840 742.498 Q 134.546 742.623 131.409 753.219 Q 128.271 763.816 126.204 776.967 Q 124.137 790.118 123.428 796.324 Q 122.720 802.530 122.283 806.779 Q 121.847 811.029 121.579 813.406 Q 121.311 815.783 120.602 824.400 Q 119.894 833.018 119.392 839.569 Q 118.890 846.119 118.538 853.129 Q 118.185 860.139 118.045 863.807 Q 117.904 867.475 117.739 869.709 Q 117.573 871.943 117.203 884.319 Q 116.980 883.788 117.225 876.698 Q 117.469 869.607 117.581 864.674 Q 117.693 859.740 119.179 845.212 Q 120.666 830.684 122.237 819.916 Q 123.807 809.148 126.357 797.198 Q 128.906 785.248 130.959 777.495 Q 133.013 769.742 138.053 757.616 Q 138.524 757.941 135.734 767.840 Q 132.945 777.740 130.734 790.882 Q 128.523 804.024 127.112 816.780 Q 125.700 829.535 125.237 835.715 Q 124.774 841.894 124.562 845.016 Q 124.351 848.138 124.110 852.167 Q 123.869 856.197 123.609 862.721 Q 123.349 869.245 123.200 873.133 Q 123.051 877.021 124.353 880.516 Q 125.903 879.849 128.011 862.468 Q 130.118 845.088 131.932 833.265 Q 133.745 821.443 134.769 814.528 Q 135.792 807.613 137.034 799.865 Q 138.276 792.117 142.336 769.072 Q 141.424 769.243 137.741 781.706 Q 134.058 794.168 131.318 816.727 Q 128.578 839.285 127.393 853.402 Q 126.209 867.519 125.896 879.288 Q 125.964 879.221 127.836 864.446 Q 129.707 849.672 130.888 841.512 Q 132.069 833.352 132.692 829.654 Q 133.314 825.957 134.541 819.707 Q 135.768 813.457 137.068 808.732 Q 138.368 804.006 140.825 800.771 Q 141.239 801.462 139.327 813.226 Q 137.414 824.990 135.791 834.331 Q 134.168 843.673 132.414 855.897 Q 130.661 868.121 129.639 875.740 Q 128.618 883.359 129.045 889.256 Q 130.404 889.743 132.792 874.951 Q 135.180 860.159 136.932 848.511 Q 138.683 836.863 142.336 809.110 Q 141.976 809.502 140.590 816.119 Q 139.203 822.735 136.612 839.330 Q 134.020 855.925 132.509 864.751 Q 130.998 873.577 130.041 877.936 Q 129.084 882.295 127.282 889.415 Q 125.480 896.535 123.776 903.909 Q 122.072 911.284 118.180 919.278 Q 116.124 920.084 113.858 912.673 Q 111.592 905.262 110.211 892.444 Q 110.142 892.538 110.649 901.396 Q 111.156 910.255 111.156 912.263 "></path>
  </g>
  <g id="New_Layer_4" opacity="1.000">
    <path id="STROKE_a6bf85c5-8958-4e47-8651-a0047c16ef37" opacity="1.000" fill="none" stroke="#000000" stroke-width="1.800" stroke-opacity="1.000" stroke-linecap="round" stroke-linejoin="round" d="M -127.198 622.149 Q -128.956 622.900 -130.845 623.714 Q -132.735 624.527 -134.791 625.424 Q -136.847 626.321 -141.989 628.617 Q -147.132 630.912 -150.871 632.644 Q -154.610 634.377 -157.409 635.716 Q -160.209 637.056 -162.867 638.392 Q -165.526 639.728 -172.910 643.644 Q -180.295 647.561 -184.599 650.063 Q -188.903 652.565 -194.892 656.427 Q -200.881 660.290 -208.013 665.539 Q -215.145 670.788 -219.182 674.151 Q -223.219 677.513 -226.889 680.862 Q -230.559 684.211 -232.350 685.963 Q -234.141 687.716 -236.647 690.326 Q -239.154 692.936 -240.241 694.127 Q -241.329 695.319 -244.942 699.587 Q -248.554 703.854 -249.305 704.794 Q -250.055 705.734 -251.430 707.547 Q -252.805 709.359 -253.732 710.621 Q -254.659 711.884 -255.392 712.896 Q -256.125 713.907 -257.967 716.557 Q -259.809 719.207 -261.231 721.379 Q -262.653 723.550 -264.517 726.551 Q -266.382 729.552 -269.382 734.898 Q -272.383 740.244 -274.222 743.924 Q -276.061 747.604 -277.818 751.520 Q -279.576 755.436 -281.305 759.845 Q -283.033 764.254 -284.497 768.565 Q -285.961 772.877 -288.173 781.226 Q -290.385 789.576 -291.698 796.959 Q -293.012 804.343 -293.566 809.354 Q -294.121 814.364 -294.379 818.634 Q -294.637 822.903 -294.659 829.317 Q -294.681 835.730 -294.256 842.137 Q -293.831 848.544 -292.875 855.207 Q -291.920 861.871 -290.874 866.726 Q -289.828 871.580 -288.213 877.113 Q -286.597 882.645 -285.516 885.670 Q -284.435 888.695 -283.465 891.114 Q -282.494 893.534 -279.189 900.357 Q -275.884 907.180 -273.802 910.735 Q -271.721 914.290 -269.762 917.268 Q -267.802 920.246 -265.088 923.934 Q -262.373 927.622 -259.891 930.629 Q -257.409 933.635 -255.671 935.560 Q -253.933 937.485 -251.605 939.851 Q -249.278 942.217 -246.992 944.339 Q -244.707 946.461 -243.544 947.467 Q -242.382 948.474 -238.961 951.209 Q -235.541 953.944 -232.918 955.843 Q -230.295 957.742 -225.692 960.692 Q -221.089 963.642 -208.659 969.807 Q -196.229 975.972 -189.281 978.550 Q -182.332 981.129 -179.182 982.121 Q -176.031 983.114 -166.967 985.473 Q -157.902 987.831 -144.798 990.065 Q -131.694 992.298 -126.538 992.844 Q -121.381 993.390 -112.567 993.887 Q -103.754 994.383 -96.025 994.416 Q -88.297 994.449 -83.670 994.302 Q -79.043 994.154 -75.696 993.965 Q -72.348 993.775 -70.225 993.623 Q -68.101 993.471 -60.856 992.729 Q -53.611 991.987 -45.571 990.789 Q -37.530 989.591 -25.844 987.139 Q -14.158 984.686 -10.238 983.657 Q -6.318 982.628 2.742 979.819 Q 11.803 977.009 17.511 974.905 Q 23.220 972.800 28.592 970.562 Q 33.964 968.323 36.794 967.036 Q 39.624 965.750 41.420 964.884 Q 43.216 964.018 47.563 961.769 Q 51.911 959.520 56.395 956.990 Q 60.880 954.459 63.615 952.783 Q 66.351 951.107 71.030 948.028 Q 75.708 944.950 81.331 940.770 Q 86.955 936.591 90.710 933.462 Q 94.465 930.333 95.923 929.017 Q 97.382 927.701 98.353 926.782 Q 99.324 925.864 103.728 921.437 Q 108.132 917.009 109.231 915.811 Q 110.330 914.613 112.823 911.727 Q 115.317 908.841 117.770 905.724 Q 120.224 902.608 123.087 898.538 Q 125.950 894.467 127.286 892.357 Q 128.622 890.247 131.690 884.696 Q 134.758 879.146 137.552 872.839 Q 140.345 866.531 142.705 859.269 Q 145.064 852.007 146.020 847.963 Q 146.975 843.919 147.733 839.443 Q 148.490 834.968 148.820 832.097 Q 149.150 829.226 149.467 824.336 Q 149.784 819.446 149.672 812.590 Q 149.559 805.735 149.259 802.130 Q 148.959 798.526 148.433 794.580 Q 147.908 790.634 147.554 788.579 Q 147.199 786.525 146.042 781.246 Q 144.885 775.966 143.120 769.898 Q 141.354 763.830 140.598 761.618 Q 139.842 759.406 137.560 753.546 Q 135.277 747.685 133.589 743.956 Q 131.900 740.227 129.717 735.978 Q 127.533 731.729 122.512 723.399 Q 117.491 715.069 114.971 711.503 Q 112.451 707.936 109.407 704.021 Q 106.362 700.105 103.814 697.115 Q 101.265 694.124 99.498 692.189 Q 97.731 690.253 88.808 681.725 Q 79.886 673.197 74.798 669.120 Q 69.710 665.043 65.736 662.196 Q 61.763 659.349 56.314 655.854 Q 50.866 652.358 43.318 648.246 Q 35.770 644.134 23.016 638.822 Q 10.261 633.510 7.991 632.758 Q 5.721 632.005 3.045 631.194 Q 0.369 630.382 -6.582 628.611 Q -13.534 626.840 -19.428 625.686 Q -25.323 624.533 -28.263 624.068 Q -31.204 623.604 -36.137 623.012 Q -41.070 622.421 -47.750 621.925 Q -54.429 621.429 -55.971 621.355 Q -57.514 621.280 -62.409 621.174 Q -67.304 621.069 -75.256 621.193 Q -83.208 621.317 -89.179 621.596 Q -95.151 621.875 -97.066 622.000 Q -98.981 622.125 -101.669 622.321 Q -104.356 622.517 -107.675 622.806 Q -110.994 623.095 -112.953 623.273 Q -114.913 623.450 -116.465 623.595 Q -118.017 623.740 -120.785 624.033 Q -123.553 624.326 -125.603 624.536 Q -127.652 624.746 -127.783 624.761 Q -127.913 624.777 -134.316 625.456 "></path>
    <path id="STROKE_7e7e7d4c-a7f7-41d6-ac2a-186f1044f997" opacity="1.000" fill="none" stroke="#000000" stroke-width="1.800" stroke-opacity="1.000" stroke-linecap="round" stroke-linejoin="round" d="M 403.241 610.339 Q 400.389 610.173 399.292 610.108 Q 398.195 610.042 396.162 609.916 Q 394.129 609.789 391.653 609.663 Q 389.177 609.537 383.931 609.280 Q 378.685 609.023 373.695 608.799 Q 368.705 608.574 365.525 608.457 Q 362.345 608.339 360.582 608.296 Q 358.820 608.252 357.450 608.215 Q 356.079 608.179 350.134 608.132 Q 344.189 608.085 333.960 608.301 Q 323.731 608.517 315.252 609.014 Q 306.772 609.510 298.017 610.387 Q 289.262 611.264 284.711 611.874 Q 280.160 612.484 274.819 613.384 Q 269.479 614.285 264.871 615.221 Q 260.263 616.157 258.316 616.603 Q 256.368 617.049 252.944 617.894 Q 249.519 618.739 243.656 620.358 Q 237.793 621.978 229.630 624.745 Q 221.466 627.513 216.111 629.688 Q 210.755 631.864 203.238 635.466 Q 195.722 639.068 192.796 640.665 Q 189.871 642.262 186.147 644.450 Q 182.424 646.639 179.026 648.832 Q 175.628 651.026 172.579 653.173 Q 169.529 655.319 166.326 657.767 Q 163.124 660.215 160.253 662.594 Q 157.383 664.974 154.836 667.250 Q 152.290 669.526 148.310 673.417 Q 144.330 677.309 142.076 679.696 Q 139.822 682.084 137.378 684.861 Q 134.935 687.639 133.942 688.816 Q 132.950 689.993 131.414 691.889 Q 129.878 693.786 127.327 697.138 Q 124.776 700.490 122.562 703.591 Q 120.348 706.692 118.536 709.371 Q 116.723 712.049 115.437 714.035 Q 114.150 716.021 111.548 720.362 Q 108.946 724.703 107.439 727.415 Q 105.932 730.128 104.642 732.647 Q 103.353 735.166 101.296 739.451 Q 99.239 743.736 97.742 747.121 Q 96.246 750.507 94.912 753.759 Q 93.577 757.012 92.016 761.192 Q 90.455 765.372 88.701 770.820 Q 86.947 776.268 86.149 779.098 Q 85.351 781.927 84.064 787.174 Q 82.778 792.422 82.127 795.623 Q 81.477 798.825 81.115 800.843 Q 80.753 802.861 79.853 809.840 Q 78.953 816.818 78.680 820.665 Q 78.407 824.512 78.305 827.121 Q 78.203 829.730 78.184 832.973 Q 78.166 836.216 78.538 842.798 Q 78.909 849.380 79.705 855.161 Q 80.500 860.942 81.123 864.067 Q 81.745 867.192 83.506 873.482 Q 85.266 879.772 86.272 882.573 Q 87.277 885.374 88.554 888.465 Q 89.830 891.557 91.391 894.865 Q 92.951 898.174 95.147 902.098 Q 97.343 906.022 98.627 908.042 Q 99.911 910.063 101.781 912.740 Q 103.652 915.418 105.407 917.686 Q 107.163 919.954 111.236 924.478 Q 115.310 929.003 119.260 932.751 Q 123.210 936.499 126.444 939.223 Q 129.678 941.947 133.747 945.006 Q 137.816 948.066 142.332 951.052 Q 146.847 954.039 152.395 957.237 Q 157.944 960.435 161.517 962.261 Q 165.091 964.087 168.222 965.554 Q 171.352 967.021 178.169 969.818 Q 184.985 972.615 191.491 974.850 Q 197.997 977.084 205.680 979.196 Q 213.363 981.307 217.354 982.197 Q 221.346 983.086 231.971 984.788 Q 242.597 986.491 249.239 987.085 Q 255.882 987.679 258.819 987.818 Q 261.756 987.958 266.854 988.027 Q 271.952 988.096 285.499 987.206 Q 299.045 986.316 304.664 985.475 Q 310.282 984.633 313.619 983.994 Q 316.956 983.354 321.648 982.275 Q 326.340 981.195 330.592 980.037 Q 334.844 978.880 336.203 978.475 Q 337.562 978.070 342.099 976.578 Q 346.637 975.086 349.748 973.940 Q 352.859 972.794 354.788 972.037 Q 356.717 971.280 361.119 969.393 Q 365.520 967.506 367.819 966.437 Q 370.118 965.369 373.007 963.935 Q 375.897 962.502 385.860 956.843 Q 395.823 951.183 401.376 947.504 Q 406.930 943.824 411.153 940.750 Q 415.377 937.677 419.579 934.356 Q 423.780 931.036 429.697 925.836 Q 435.614 920.635 440.055 916.261 Q 444.496 911.887 449.303 906.578 Q 454.110 901.270 459.192 894.839 Q 464.274 888.407 468.305 882.458 Q 472.336 876.508 474.990 872.012 Q 477.643 867.516 480.524 861.808 Q 483.405 856.100 484.737 853.062 Q 486.068 850.024 487.118 847.406 Q 488.168 844.788 489.983 839.466 Q 491.798 834.144 493.277 828.597 Q 494.757 823.051 496.386 813.543 Q 498.016 804.035 498.512 797.166 Q 499.008 790.297 498.840 781.755 Q 498.671 773.212 498.182 768.308 Q 497.693 763.404 497.346 760.937 Q 496.998 758.470 496.039 753.408 Q 495.079 748.346 494.260 744.951 Q 493.440 741.556 490.412 732.015 Q 487.385 722.473 485.320 717.371 Q 483.255 712.269 481.804 709.087 Q 480.353 705.905 475.813 697.414 Q 471.274 688.923 468.475 684.366 Q 465.677 679.809 461.269 673.457 Q 456.861 667.104 454.500 663.976 Q 452.140 660.848 448.849 656.731 Q 445.559 652.613 440.865 647.135 Q 436.171 641.657 432.294 637.397 Q 428.417 633.136 426.482 631.052 Q 424.548 628.968 423.764 628.149 Q 422.979 627.330 421.553 625.832 Q 420.126 624.335 418.955 623.118 Q 417.784 621.901 416.161 620.260 Q 414.537 618.619 413.562 617.626 Q 412.588 616.634 412.145 616.189 Q 411.702 615.744 410.575 614.631 Q 410.223 614.292 408.869 612.834 Q 407.515 611.375 404.375 608.118 "></path>
  </g>
  <g id="New_Layer_6" opacity="1.000">
    <path id="STROKE_9720a5d3-72fe-4792-b3c8-9a212082ec56" opacity="1.000" fill="none" stroke="#000000" stroke-width="1.800" stroke-opacity="1.000" stroke-linecap="round" stroke-linejoin="round" d="M -225.337 605.709 Q -225.059 605.659 -224.245 605.332 Q -223.432 605.004 -222.961 604.748 Q -222.491 604.492 -221.790 604.016 Q -221.090 603.540 -220.500 603.042 Q -219.911 602.544 -219.164 601.872 Q -218.416 601.200 -217.632 600.357 Q -216.848 599.514 -215.846 598.357 Q -214.844 597.199 -213.085 594.802 Q -211.326 592.406 -210.049 590.037 Q -208.772 587.668 -207.179 583.738 Q -205.587 579.808 -204.224 576.257 Q -202.861 572.706 -201.312 564.500 Q -199.763 556.293 -199.282 552.041 Q -198.800 547.788 -198.600 546.084 Q -198.400 544.381 -198.301 542.611 Q -198.203 540.842 -198.297 538.178 Q -198.390 535.513 -198.936 533.473 Q -199.482 531.432 -201.574 528.662 Q -203.665 525.893 -205.333 524.744 Q -207.001 523.595 -208.009 523.240 Q -209.016 522.885 -209.436 522.828 Q -209.855 522.771 -210.508 522.851 Q -211.162 522.932 -211.534 523.154 Q -211.906 523.375 -212.327 524.034 Q -212.749 524.694 -213.835 528.727 Q -214.920 532.760 -215.282 535.769 Q -215.644 538.778 -214.977 544.941 Q -214.309 551.104 -213.142 556.859 Q -211.974 562.615 -211.077 566.645 Q -210.180 570.675 -209.695 572.915 Q -209.210 575.155 -207.786 583.917 Q -206.362 592.679 -205.674 597.741 Q -204.987 602.803 -204.728 614.150 Q -204.469 625.497 -204.494 633.198 Q -204.519 640.899 -205.241 645.668 Q -205.963 650.437 -206.686 652.756 Q -207.409 655.075 -208.270 656.836 Q -209.131 658.598 -210.858 660.294 Q -212.584 661.991 -213.404 662.507 Q -214.225 663.023 -215.902 663.522 Q -217.579 664.020 -218.587 663.958 Q -219.594 663.895 -220.234 663.722 Q -220.875 663.548 -222.070 662.211 Q -223.266 660.873 -223.762 657.477 Q -224.259 654.080 -224.138 651.907 Q -224.017 649.734 -222.686 644.547 Q -221.356 639.360 -218.475 632.563 Q -215.594 625.765 -214.380 622.593 Q -213.167 619.421 -210.472 613.170 Q -207.778 606.920 -205.184 600.720 Q -202.591 594.520 -201.395 590.976 Q -200.198 587.431 -199.641 584.987 Q -199.083 582.543 -196.250 573.300 Q -196.123 573.411 -195.557 576.615 Q -194.990 579.819 -194.132 583.227 Q -193.274 586.634 -192.465 588.195 Q -191.656 589.755 -190.760 590.470 Q -189.864 591.185 -189.520 591.287 Q -189.177 591.388 -188.230 591.079 Q -187.284 590.770 -186.341 589.064 Q -185.399 587.359 -184.779 584.592 Q -184.158 581.825 -183.636 578.368 Q -183.113 574.911 -182.494 572.229 Q -181.874 569.547 -181.116 568.302 Q -181.010 568.180 -180.478 571.905 Q -179.947 575.630 -179.366 578.973 Q -178.784 582.317 -177.998 584.354 Q -177.212 586.391 -176.605 587.164 Q -175.999 587.938 -175.571 588.250 Q -175.144 588.562 -174.821 588.651 Q -174.498 588.740 -174.174 588.587 Q -173.850 588.435 -173.762 588.337 Q -173.674 588.240 -172.674 584.562 Q -171.674 580.883 -171.157 576.624 Q -170.641 572.365 -169.852 569.547 Q -169.064 566.729 -166.990 564.993 Q -166.692 565.394 -165.145 568.702 Q -163.598 572.010 -160.969 583.241 Q -160.621 582.797 -160.588 582.702 Q -160.555 582.608 -160.303 578.607 Q -160.050 574.605 -159.508 570.418 Q -158.966 566.231 -157.979 563.753 Q -156.993 561.275 -156.109 560.194 Q -155.225 559.112 -154.416 558.646 Q -153.607 558.180 -153.001 558.073 Q -152.394 557.967 -151.778 558.056 Q -151.162 558.145 -150.333 558.768 Q -149.504 559.392 -148.884 560.237 Q -148.263 561.083 -146.745 565.201 Q -145.228 569.319 -143.998 572.700 Q -142.769 576.081 -141.732 577.733 Q -140.695 579.385 -140.033 579.886 Q -139.372 580.387 -139.062 580.431 Q -138.753 580.476 -138.688 580.483 Q -138.624 580.491 -138.382 580.313 Q -138.140 580.134 -137.977 579.852 Q -137.470 579.082 -136.970 576.052 Q -136.469 573.022 -134.997 568.199 Q -133.525 563.375 -132.427 561.089 Q -131.329 558.803 -130.031 557.141 Q -128.733 555.479 -127.117 554.498 Q -125.501 553.517 -120.210 555.009 L -120.211 555.068 L -120.437 555.175 Q -120.583 555.190 -120.957 555.114 Q -121.330 555.038 -121.891 555.242 Q -122.451 555.446 -123.512 556.534 Q -124.574 557.621 -125.385 559.665 Q -126.196 561.709 -126.463 563.584 Q -126.729 565.459 -126.805 566.449 Q -126.880 567.440 -126.520 571.339 Q -126.159 575.238 -124.025 579.125 Q -122.905 579.641 -117.131 574.619 Q -111.357 569.596 -107.882 565.241 Q -104.408 560.887 -102.040 556.673 Q -99.672 552.459 -96.628 541.738 Q -93.585 531.017 -91.644 523.357 Q -89.704 515.697 -87.833 504.178 Q -88.303 504.724 -88.389 504.719 Q -88.475 504.714 -90.433 509.508 Q -92.391 514.302 -94.671 521.586 Q -96.952 528.870 -98.596 535.337 Q -100.240 541.805 -101.016 548.252 Q -101.791 554.700 -101.540 559.045 Q -101.289 563.390 -99.856 566.282 Q -99.690 566.823 -94.816 565.757 L -94.343 565.782 L -93.966 565.805 Q -93.636 565.736 -92.936 565.379 Q -92.236 565.023 -91.062 564.185 Q -89.887 563.347 -86.685 559.072 Q -83.482 554.797 -79.038 546.141 Q -79.242 546.249 -80.459 549.984 Q -81.676 553.719 -82.286 557.364 Q -82.895 561.010 -82.786 563.020 Q -82.678 565.031 -82.137 566.299 Q -81.595 567.567 -80.931 568.053 Q -80.266 568.539 -79.712 568.701 Q -79.157 568.863 -77.830 568.238 Q -76.503 567.612 -74.244 564.930 Q -71.984 562.249 -70.586 559.765 Q -69.187 557.282 -68.604 555.615 Q -68.022 553.949 -68.038 553.038 Q -68.054 552.127 -68.076 551.945 Q -68.098 551.762 -68.278 551.521 Q -68.457 551.280 -68.779 551.229 Q -69.101 551.178 -69.149 551.263 Q -69.198 551.348 -69.894 552.235 Q -70.590 553.123 -71.115 555.798 Q -71.639 558.474 -71.611 561.570 Q -71.584 564.666 -70.946 566.967 Q -70.309 569.268 -69.480 569.836 Q -68.651 570.404 -67.527 570.277 Q -66.404 570.149 -65.606 569.699 Q -64.809 569.250 -62.905 567.235 Q -61.001 565.219 -60.144 562.793 Q -59.287 560.367 -59.237 558.156 Q -59.187 555.946 -60.031 553.911 Q -60.875 551.877 -61.856 550.588 Q -62.837 549.300 -63.494 548.889 L -63.481 548.935 Q -62.597 548.783 -62.592 548.729 Q -62.587 548.676 -59.284 548.816 Q -55.980 548.956 -53.012 549.111 Q -50.044 549.265 -47.573 549.300 Q -45.102 549.336 -42.706 549.198 Q -42.606 549.151 -43.010 550.502 Q -43.414 551.854 -44.435 555.293 Q -45.455 558.732 -46.048 561.928 Q -46.641 565.124 -47.661 574.013 Q -47.713 573.962 -47.026 571.950 Q -46.338 569.938 -43.912 565.813 Q -41.485 561.688 -39.009 558.991 Q -36.533 556.295 -34.911 555.411 Q -33.289 554.527 -32.123 554.555 Q -31.467 554.985 -32.202 558.907 Q -32.938 562.830 -33.708 565.748 Q -34.478 568.667 -34.566 570.243 Q -34.654 571.819 -34.432 573.290 Q -34.211 574.760 -33.801 575.371 Q -33.391 575.982 -32.930 576.371 Q -32.468 576.760 -31.678 577.166 Q -30.887 577.573 -30.398 577.662 Q -29.910 577.752 -29.357 577.811 Q -28.804 577.871 -26.914 577.175 Q -25.024 576.478 -21.793 572.923 Q -18.562 569.369 -17.019 566.696 Q -15.476 564.024 -14.729 562.279 Q -13.982 560.533 -13.743 556.674 Q -13.503 552.815 -14.119 550.460 L -14.182 550.458 L -14.136 550.820 Q -14.209 551.233 -11.301 555.218 Q -8.393 559.202 -6.389 561.906 Q -4.384 564.610 -3.583 566.099 Q -2.782 567.589 -2.299 569.613 Q -1.817 571.638 -2.062 573.787 Q -2.308 575.936 -3.103 577.356 Q -3.898 578.775 -5.092 579.922 Q -6.285 581.070 -8.527 581.968 Q -10.768 582.866 -12.505 582.903 Q -14.243 582.940 -16.088 582.071 Q -17.932 581.203 -18.808 579.932 Q -19.684 578.661 -19.882 577.746 Q -20.080 576.831 -19.502 575.064 Q -18.924 573.297 0.886 573.243 L 2.939 572.640 "></path>
    <path id="STROKE_416ee585-7941-43a9-9cc5-8fb3a21feee2" opacity="1.000" fill="none" stroke="#000000" stroke-width="1.800" stroke-opacity="1.000" stroke-linecap="round" stroke-linejoin="round" d="M -71.263 527.618 Q -71.139 527.576 -70.827 527.801 Q -70.865 528.186 -70.822 528.327 "></path>
    <path id="STROKE_fd51ee66-a8ea-42ba-8fef-eefea0f4ef90" opacity="1.000" fill="none" stroke="#000000" stroke-width="1.800" stroke-opacity="1.000" stroke-linecap="round" stroke-linejoin="round" d="M -122.159 537.350 Q -122.041 537.351 -119.666 536.972 Q -117.291 536.593 -110.258 534.446 Q -103.225 532.298 -97.830 530.180 Q -92.436 528.061 -89.311 526.668 Q -86.187 525.275 -84.472 524.431 Q -82.757 523.588 -75.378 519.887 Q -68.000 516.185 -66.224 515.335 "></path>
    <path id="STROKE_85377c95-e6db-41aa-b7c2-900bad5d7a38" opacity="1.000" fill="none" stroke="#000000" stroke-width="1.800" stroke-opacity="1.000" stroke-linecap="round" stroke-linejoin="round" d="M 233.735 1011.282 Q 233.600 1010.957 232.746 1009.811 Q 231.893 1008.664 231.139 1008.055 Q 230.386 1007.447 229.636 1007.094 Q 228.886 1006.741 227.965 1006.587 Q 227.044 1006.433 225.917 1006.622 Q 224.791 1006.811 223.056 1008.170 Q 221.321 1009.529 219.898 1012.242 Q 218.474 1014.954 218.033 1018.411 Q 217.592 1021.868 218.337 1025.642 Q 219.082 1029.416 220.642 1032.342 Q 222.203 1035.267 223.790 1036.993 Q 225.377 1038.720 227.417 1039.850 Q 229.456 1040.979 231.553 1041.079 Q 233.650 1041.180 234.980 1040.833 Q 236.309 1040.486 237.902 1039.335 Q 239.495 1038.184 241.384 1035.278 Q 243.273 1032.371 243.876 1031.218 "></path>
    <path id="STROKE_a0dfd42e-c660-41c3-b0a3-4d3683bb3c54" opacity="1.000" fill="none" stroke="#000000" stroke-width="1.800" stroke-opacity="1.000" stroke-linecap="round" stroke-linejoin="round" d="M 251.876 1014.967 L 251.247 1015.406 Q 251.008 1015.553 250.372 1016.224 Q 249.737 1016.896 249.056 1019.932 Q 248.376 1022.969 248.861 1026.070 Q 249.345 1029.172 250.404 1031.196 Q 251.462 1033.220 252.680 1034.431 Q 253.898 1035.642 256.056 1036.408 Q 258.213 1037.174 260.512 1036.890 Q 262.810 1036.607 264.399 1035.560 Q 265.987 1034.514 267.222 1032.445 Q 268.456 1030.376 268.659 1028.259 Q 268.862 1026.142 268.501 1024.766 Q 268.141 1023.390 267.379 1022.352 Q 266.618 1021.313 265.223 1020.513 Q 263.828 1019.713 262.631 1019.498 Q 261.434 1019.283 260.399 1019.236 Q 259.364 1019.189 257.436 1019.702 Q 255.509 1020.215 252.128 1021.864 "></path>
    <path id="STROKE_7b9dcd7f-e9fd-43e5-8698-3e2336c71d17" opacity="1.000" fill="none" stroke="#000000" stroke-width="1.800" stroke-opacity="1.000" stroke-linecap="round" stroke-linejoin="round" d="M 283.623 1014.258 Q 283.317 1015.152 279.009 1038.207 Q 279.135 1038.152 280.287 1032.924 Q 281.438 1027.697 282.483 1024.025 Q 283.528 1020.352 285.163 1018.541 Q 285.302 1018.408 285.961 1018.683 Q 286.620 1018.957 287.393 1019.677 Q 288.166 1020.397 290.274 1023.292 Q 292.383 1026.187 294.236 1028.315 Q 296.089 1030.443 297.367 1031.220 Q 298.644 1031.996 299.669 1032.130 Q 300.694 1032.263 301.744 1031.754 Q 302.795 1031.246 304.038 1029.281 Q 305.282 1027.316 305.741 1025.286 Q 306.201 1023.256 306.083 1019.983 Q 305.966 1016.710 304.461 1012.799 Q 302.957 1008.888 300.441 1004.479 "></path>
    <path id="STROKE_ee3c0b96-4970-4d2d-8234-0dce93719aa3" opacity="1.000" fill="none" stroke="#000000" stroke-width="1.800" stroke-opacity="1.000" stroke-linecap="round" stroke-linejoin="round" d="M 322.929 1009.723 Q 322.924 1009.817 323.244 1010.247 Q 323.564 1010.676 324.177 1021.776 Q 324.791 1032.875 324.818 1033.155 "></path>
    <path id="STROKE_09478517-3200-4a25-9d90-401122d361ae" opacity="1.000" fill="none" stroke="#000000" stroke-width="1.800" stroke-opacity="1.000" stroke-linecap="round" stroke-linejoin="round" d="M 312.850 1008.306 L 313.182 1008.154 Q 313.768 1008.339 326.126 1007.451 Q 338.484 1006.563 339.495 1006.558 "></path>
    <path id="STROKE_a886c7a2-9920-4c4f-9375-5741ac92c66e" opacity="1.000" fill="none" stroke="#000000" stroke-width="1.800" stroke-opacity="1.000" stroke-linecap="round" stroke-linejoin="round" d="M 342.078 1012.321 Q 342.153 1013.041 343.545 1017.021 Q 344.937 1021.001 344.487 1034.848 L 344.345 1035.092 "></path>
    <path id="STROKE_517250d8-b8f1-496a-ac32-ca4cb15cbcbc" opacity="1.000" fill="none" stroke="#000000" stroke-width="1.800" stroke-opacity="1.000" stroke-linecap="round" stroke-linejoin="round" d="M 343.527 1011.896 Q 344.284 1011.211 345.026 1010.688 Q 345.769 1010.166 347.586 1009.110 Q 349.404 1008.054 351.601 1007.195 Q 353.798 1006.336 355.252 1006.253 Q 356.705 1006.170 357.608 1006.371 Q 358.512 1006.573 358.946 1007.092 Q 359.380 1007.612 359.568 1009.289 Q 359.756 1010.967 357.655 1014.710 Q 355.553 1018.453 353.912 1020.644 Q 352.271 1022.836 350.775 1024.795 Q 350.553 1025.571 351.715 1027.403 Q 352.877 1029.234 354.157 1030.124 Q 355.437 1031.013 357.328 1031.743 Q 359.219 1032.473 362.790 1032.872 L 363.494 1032.824 "></path>
    <path id="STROKE_007dec24-1c8f-437e-9e2a-d68869bf55d2" opacity="1.000" fill="none" stroke="#000000" stroke-width="1.800" stroke-opacity="1.000" stroke-linecap="round" stroke-linejoin="round" d="M 369.478 1008.967 Q 369.199 1009.222 368.925 1009.591 Q 368.650 1009.960 368.388 1010.470 Q 368.126 1010.980 367.709 1011.853 Q 367.292 1012.725 366.896 1015.343 Q 366.501 1017.960 366.691 1019.869 Q 366.881 1021.779 367.898 1024.164 Q 368.914 1026.549 370.335 1028.081 Q 371.755 1029.612 372.828 1030.211 Q 373.902 1030.810 375.192 1030.966 Q 376.483 1031.121 377.470 1030.665 Q 378.457 1030.210 379.566 1028.193 Q 380.675 1026.176 380.960 1023.337 Q 381.246 1020.498 380.933 1018.576 Q 380.619 1016.653 379.899 1015.436 Q 379.179 1014.220 378.237 1013.428 Q 377.295 1012.636 375.732 1012.240 Q 374.168 1011.844 373.056 1012.036 Q 371.944 1012.228 370.423 1012.463 "></path>
    <path id="STROKE_37556d1e-cac9-4fb5-afb7-346e649550b4" opacity="1.000" fill="none" stroke="#000000" stroke-width="1.800" stroke-opacity="1.000" stroke-linecap="round" stroke-linejoin="round" d="M 389.950 1001.881 Q 390.166 1002.487 390.856 1006.293 Q 391.546 1010.100 391.359 1013.995 Q 391.172 1017.891 390.445 1021.660 Q 389.718 1025.428 389.765 1029.628 Q 390.038 1029.757 391.347 1029.676 Q 392.656 1029.595 395.799 1029.476 Q 398.941 1029.356 403.567 1030.316 Q 408.193 1031.276 413.823 1033.816 "></path>
    <path id="STROKE_15ac5545-39ac-457e-a0e3-d6e8569fe430" opacity="1.000" fill="none" stroke="#000000" stroke-width="1.800" stroke-opacity="1.000" stroke-linecap="round" stroke-linejoin="round" d="M 284.694 1046.477 Q 284.300 1046.748 280.618 1051.214 Q 276.937 1055.679 275.355 1057.957 Q 273.774 1060.234 273.646 1061.651 Q 274.097 1061.864 274.118 1061.852 Q 274.649 1061.828 275.192 1061.786 Q 275.735 1061.743 276.178 1061.737 Q 276.620 1061.731 279.171 1061.709 Q 281.722 1061.686 285.771 1062.430 Q 289.821 1063.174 292.001 1064.063 Q 294.180 1064.951 295.873 1066.226 Q 297.566 1067.500 298.270 1069.044 Q 298.973 1070.588 298.192 1072.412 Q 297.412 1074.236 294.989 1076.129 Q 292.567 1078.022 290.083 1078.847 Q 287.599 1079.672 285.912 1079.632 Q 284.224 1079.593 282.865 1079.076 Q 281.505 1078.559 280.686 1076.576 Q 279.866 1074.593 279.529 1072.791 "></path>
    <path id="STROKE_b030ad43-78ba-4600-a581-4deb89070912" opacity="1.000" fill="none" stroke="#000000" stroke-width="1.800" stroke-opacity="1.000" stroke-linecap="round" stroke-linejoin="round" d="M 309.323 1051.438 Q 309.511 1051.620 309.809 1052.114 Q 310.107 1052.608 310.426 1053.206 Q 310.745 1053.804 311.611 1055.765 Q 312.476 1057.727 313.454 1060.906 Q 314.432 1064.084 314.623 1069.746 Q 314.471 1070.038 313.921 1070.665 "></path>
    <path id="STROKE_3597a0ce-87aa-4869-b5e0-9709eeb9e089" opacity="1.000" fill="none" stroke="#000000" stroke-width="1.800" stroke-opacity="1.000" stroke-linecap="round" stroke-linejoin="round" d="M 292.694 1051.674 Q 292.950 1051.722 301.685 1050.348 Q 310.421 1048.975 320.220 1047.186 "></path>
    <path id="STROKE_37bda1fe-9693-4f7c-ac3f-f70bb0dcb863" opacity="1.000" fill="none" stroke="#000000" stroke-width="1.800" stroke-opacity="1.000" stroke-linecap="round" stroke-linejoin="round" d="M 331.558 1052.335 Q 331.191 1052.979 333.258 1071.213 L 333.385 1071.657 "></path>
    <path id="STROKE_9e7d6a51-414f-4e25-bc36-58e29c9c6f8e" opacity="1.000" fill="none" stroke="#000000" stroke-width="1.800" stroke-opacity="1.000" stroke-linecap="round" stroke-linejoin="round" d="M 329.669 1053.894 Q 330.020 1052.991 332.143 1050.571 Q 334.266 1048.151 336.527 1046.833 Q 338.788 1045.514 339.903 1045.298 Q 341.018 1045.082 341.896 1045.169 Q 342.773 1045.255 343.276 1045.573 Q 343.779 1045.891 344.276 1047.293 Q 344.773 1048.694 344.095 1051.718 Q 343.417 1054.742 341.931 1057.300 Q 340.444 1059.859 339.645 1060.817 Q 338.846 1061.776 338.394 1062.339 Q 337.941 1062.902 337.140 1063.249 Q 337.072 1063.247 338.424 1063.630 Q 339.776 1064.013 342.730 1065.534 Q 345.685 1067.056 347.462 1068.352 Q 349.240 1069.648 351.223 1071.724 L 352.282 1072.271 "></path>
    <path id="STROKE_2aa1ad59-be3e-4c03-aa20-01720d922962" opacity="1.000" fill="none" stroke="#000000" stroke-width="1.800" stroke-opacity="1.000" stroke-linecap="round" stroke-linejoin="round" d="M 354.424 1056.020 Q 354.889 1056.367 355.707 1057.191 Q 356.526 1058.015 357.416 1059.150 Q 358.307 1060.284 359.640 1062.397 Q 360.973 1064.511 362.104 1066.042 Q 363.235 1067.574 364.451 1068.287 Q 365.666 1069.001 367.157 1069.170 Q 368.648 1069.338 370.277 1068.500 Q 371.905 1067.662 373.341 1065.585 Q 374.777 1063.507 375.310 1060.950 Q 375.844 1058.393 375.599 1056.511 Q 375.354 1054.629 374.751 1053.119 Q 374.147 1051.609 374.048 1051.455 Q 373.949 1051.302 373.760 1051.144 Q 373.571 1050.986 373.321 1050.634 "></path>
    <path id="STROKE_c4808fc3-dad6-4df8-abe4-d9ba08a4bb01" opacity="1.000" fill="none" stroke="#000000" stroke-width="1.800" stroke-opacity="1.000" stroke-linecap="round" stroke-linejoin="round" d="M 390.832 1051.296 Q 389.921 1050.803 389.236 1050.716 Q 388.551 1050.630 388.148 1050.715 Q 387.745 1050.801 387.439 1050.923 Q 387.134 1051.045 386.532 1051.515 Q 385.931 1051.985 385.249 1052.901 Q 384.567 1053.817 383.912 1056.217 Q 383.256 1058.618 383.359 1060.532 Q 383.463 1062.446 384.002 1063.717 Q 384.540 1064.988 385.796 1066.001 Q 387.053 1067.013 389.327 1067.548 Q 391.601 1068.083 395.069 1067.458 Q 398.537 1066.834 399.909 1066.150 Q 401.281 1065.466 402.737 1064.665 "></path>
    <path id="STROKE_d8a4d337-e74b-45f3-adc2-2cb7e99a8112" opacity="1.000" fill="none" stroke="#000000" stroke-width="1.800" stroke-opacity="1.000" stroke-linecap="round" stroke-linejoin="round" d="M 416.532 1044.398 L 416.815 1046.450 Q 416.936 1046.899 417.217 1053.880 Q 417.497 1060.862 416.620 1066.799 Q 416.536 1066.862 415.839 1067.169 "></path>
    <path id="STROKE_49738a16-39a5-4c3a-bc45-fb297a7b7697" opacity="1.000" fill="none" stroke="#000000" stroke-width="1.800" stroke-opacity="1.000" stroke-linecap="round" stroke-linejoin="round" d="M 402.233 1039.816 Q 402.798 1039.602 409.209 1040.164 Q 415.620 1040.725 421.024 1040.966 Q 426.428 1041.207 429.633 1041.072 Q 432.837 1040.937 435.368 1040.484 Q 437.900 1040.030 438.956 1039.816 "></path>
    <path id="STROKE_7ec1e546-106d-40e3-8db3-09cf135e5e0c" opacity="1.000" fill="none" stroke="#000000" stroke-width="1.800" stroke-opacity="1.000" stroke-linecap="round" stroke-linejoin="round" d="M 434.673 1045.769 Q 434.924 1046.133 435.671 1049.822 Q 436.419 1053.510 437.345 1056.559 Q 438.271 1059.608 439.296 1061.552 Q 440.322 1063.497 441.597 1064.717 Q 442.872 1065.936 444.477 1066.442 Q 446.081 1066.948 447.874 1066.621 Q 449.668 1066.294 451.624 1064.238 Q 453.580 1062.181 454.796 1058.961 Q 456.012 1055.741 456.202 1052.976 Q 456.392 1050.211 455.930 1048.148 Q 455.469 1046.085 454.801 1044.820 Q 454.134 1043.554 453.113 1042.760 Q 452.092 1041.966 451.680 1041.611 "></path>
    <path id="STROKE_23672901-8f82-4699-9137-e8ca39d9f0ba" opacity="1.000" fill="none" stroke="#000000" stroke-width="1.800" stroke-opacity="1.000" stroke-linecap="round" stroke-linejoin="round" d="M 468.247 1043.737 Q 468.205 1044.110 468.178 1054.247 Q 468.151 1064.385 468.121 1065.090 "></path>
    <path id="STROKE_23e04df5-df8c-4d1b-a3d4-0ce527b623c9" opacity="1.000" fill="none" stroke="#000000" stroke-width="1.800" stroke-opacity="1.000" stroke-linecap="round" stroke-linejoin="round" d="M 465.412 1043.406 Q 465.758 1042.441 467.884 1040.182 Q 470.011 1037.922 471.891 1036.799 Q 473.771 1035.675 475.372 1035.451 Q 476.973 1035.227 477.866 1035.466 Q 478.759 1035.706 479.147 1036.083 Q 479.534 1036.459 480.010 1038.071 Q 480.485 1039.682 478.617 1043.861 Q 476.748 1048.040 474.609 1051.267 Q 472.470 1054.495 471.099 1057.403 Q 471.252 1058.228 473.086 1061.193 Q 474.920 1064.157 482.329 1071.005 L 482.861 1071.421 "></path>
    <path id="STROKE_1d2ad853-c2c5-4475-a070-4c055ef0b31b" opacity="1.000" fill="none" stroke="#000000" stroke-width="1.800" stroke-opacity="1.000" stroke-linecap="round" stroke-linejoin="round" d="M 504.592 1040.383 Q 504.503 1040.388 500.540 1041.543 Q 496.577 1042.699 494.412 1043.919 Q 492.247 1045.138 491.425 1045.975 Q 490.603 1046.811 490.324 1047.504 Q 490.046 1048.197 490.007 1048.733 Q 489.969 1049.269 490.033 1050.095 Q 490.096 1050.920 490.178 1051.317 Q 490.260 1051.714 490.670 1055.490 Q 491.079 1059.266 491.355 1069.556 Q 491.644 1070.036 493.993 1070.017 Q 496.342 1069.997 497.986 1069.799 Q 499.629 1069.601 500.170 1069.604 Q 500.711 1069.607 500.881 1069.622 Q 501.051 1069.638 501.418 1069.886 Q 501.444 1069.952 501.821 1069.909 "></path>
    <path id="STROKE_a3170288-d37c-4e26-a62f-6c8ae3fd86f4" opacity="1.000" fill="none" stroke="#000000" stroke-width="1.800" stroke-opacity="1.000" stroke-linecap="round" stroke-linejoin="round" d="M 487.459 1057.248 Q 487.551 1057.266 493.354 1057.057 Q 499.156 1056.849 502.257 1056.445 Q 505.358 1056.042 507.175 1055.737 "></path>
    <path id="STROKE_44a68b11-3d6b-4d1e-9d84-bc80b17c4a22" opacity="1.000" fill="none" stroke="#000000" stroke-width="1.800" stroke-opacity="1.000" stroke-linecap="round" stroke-linejoin="round" d="M 525.001 1040.288 Q 524.780 1040.422 520.854 1043.615 Q 516.929 1046.807 514.386 1049.496 Q 511.843 1052.185 511.112 1056.355 Q 511.206 1056.343 511.927 1056.374 Q 512.648 1056.404 514.953 1056.668 Q 517.257 1056.932 519.652 1057.570 Q 522.046 1058.208 524.463 1059.803 Q 526.879 1061.399 527.888 1062.619 Q 528.898 1063.839 529.380 1065.198 Q 529.862 1066.557 529.548 1068.120 Q 529.234 1069.683 527.444 1071.612 Q 525.655 1073.541 524.343 1074.372 Q 523.031 1075.203 521.305 1075.906 Q 519.579 1076.610 517.180 1077.087 Q 514.781 1077.564 512.497 1077.463 Q 510.213 1077.362 505.537 1075.625 "></path>
    <path id="STROKE_671699f1-694e-43fa-9510-1f609132486b" opacity="1.000" fill="none" stroke="#000000" stroke-width="1.800" stroke-opacity="1.000" stroke-linecap="round" stroke-linejoin="round" d="M 165.580 709.594 Q 165.542 709.963 164.712 712.636 Q 163.883 715.309 161.731 722.654 Q 159.580 729.999 157.981 734.785 Q 156.382 739.571 154.559 745.153 Q 152.736 750.735 152.259 753.610 Q 151.781 756.485 151.921 757.679 Q 152.062 758.873 152.215 759.405 Q 152.368 759.937 153.566 760.925 Q 154.763 761.913 158.015 762.906 Q 161.267 763.900 163.788 764.430 Q 166.308 764.959 169.859 766.103 Q 173.409 767.246 176.124 768.760 Q 178.839 770.274 180.404 771.575 Q 181.968 772.877 183.395 774.313 Q 184.822 775.749 185.724 776.676 Q 186.627 777.602 191.074 778.432 Q 191.282 778.013 189.547 770.533 Q 187.811 763.054 185.776 756.628 Q 183.741 750.202 181.368 743.370 Q 178.996 736.538 177.549 731.990 Q 176.101 727.441 175.422 725.535 Q 174.743 723.630 174.547 723.205 Q 174.352 722.780 173.856 722.091 Q 173.361 721.402 173.301 721.339 L 172.673 720.537 Q 171.901 719.402 170.885 718.144 Q 169.870 716.885 169.143 716.260 Q 168.417 715.636 168.219 715.448 Q 168.021 715.261 167.198 714.239 Q 166.923 713.992 167.048 715.444 L 167.154 715.688 "></path>
    <path id="STROKE_eb707a2a-63eb-4303-8c84-8023b8be714c" opacity="1.000" fill="none" stroke="#000000" stroke-width="1.800" stroke-opacity="1.000" stroke-linecap="round" stroke-linejoin="round" d="M 158.903 748.805 Q 159.046 749.006 158.930 749.186 Q 158.847 749.462 161.450 760.096 Q 161.747 760.304 160.776 737.458 Q 160.920 737.627 162.784 743.360 Q 164.648 749.094 166.046 753.726 Q 167.444 758.357 168.983 761.502 Q 169.304 761.114 169.339 761.162 Q 169.374 761.209 169.748 757.168 Q 170.122 753.127 169.578 746.268 Q 169.035 739.409 168.373 735.486 Q 167.710 731.563 165.377 725.155 Q 165.156 725.046 166.701 731.104 Q 168.246 737.161 171.276 747.463 Q 174.306 757.765 178.492 766.065 Q 178.720 766.041 178.958 763.521 Q 179.196 761.001 178.685 756.493 Q 178.174 751.984 176.528 744.812 Q 174.882 737.640 173.708 732.833 Q 173.691 732.827 176.082 738.890 Q 178.472 744.952 180.975 752.768 Q 183.478 760.583 185.287 765.993 Q 185.439 765.778 185.165 762.681 Q 184.891 759.583 184.037 755.582 Q 183.183 751.580 182.088 748.464 Q 180.994 745.348 180.041 743.267 L 179.437 742.380 "></path>
    <path id="STROKE_180485fb-d6ef-44d0-b8fb-a2467242ef53" opacity="1.000" fill="none" stroke="#000000" stroke-width="1.800" stroke-opacity="1.000" stroke-linecap="round" stroke-linejoin="round" d="M 184.792 749.514 Q 185.005 748.989 188.456 746.514 Q 191.907 744.040 195.334 741.660 Q 198.760 739.280 200.476 737.924 Q 202.192 736.568 204.939 734.064 Q 207.686 731.560 209.276 729.794 Q 210.865 728.028 211.899 726.882 Q 212.934 725.736 216.822 720.998 Q 220.710 716.260 224.334 710.718 Q 227.957 705.177 232.587 696.297 Q 237.216 687.417 239.346 682.752 Q 241.477 678.087 242.432 675.673 Q 243.386 673.259 244.831 669.274 Q 246.277 665.290 249.025 658.250 Q 251.773 651.211 253.748 645.185 Q 255.723 639.160 257.293 634.254 Q 258.863 629.348 259.875 626.439 Q 260.886 623.530 263.041 615.222 Q 265.196 606.914 266.171 602.149 Q 267.147 597.383 267.429 591.354 Q 267.711 585.325 267.795 582.152 Q 267.879 578.979 269.318 571.006 Q 270.757 563.033 270.500 558.419 Q 270.244 553.805 269.883 551.160 Q 269.522 548.516 269.999 543.349 Q 270.476 538.182 270.876 535.525 Q 271.276 532.868 271.228 531.846 Q 271.180 530.825 270.760 530.467 Q 270.587 530.285 270.844 530.353 L 270.332 529.980 "></path>
    <path id="STROKE_16acaf48-c479-4356-8597-5d48877c65f6" opacity="1.000" fill="none" stroke="#000000" stroke-width="1.800" stroke-opacity="1.000" stroke-linecap="round" stroke-linejoin="round" d="M 190.713 501.588 Q 190.190 499.840 189.899 499.016 Q 189.609 498.192 189.040 496.843 Q 188.471 495.494 188.218 494.944 Q 187.966 494.393 187.043 492.845 Q 186.120 491.297 184.741 489.899 Q 183.363 488.501 182.348 487.821 Q 181.333 487.140 180.694 486.821 Q 180.054 486.501 179.059 486.133 Q 178.064 485.765 176.670 485.474 Q 175.276 485.183 174.119 485.125 Q 172.963 485.067 171.616 485.317 Q 170.269 485.567 169.413 485.994 Q 168.557 486.421 168.475 486.444 Q 168.392 486.467 166.370 488.049 Q 164.347 489.630 162.530 492.078 Q 160.713 494.525 160.081 495.625 Q 159.448 496.725 159.009 497.853 Q 158.570 498.980 158.506 499.088 Q 158.443 499.196 157.746 502.088 Q 157.050 504.979 156.858 506.407 Q 156.667 507.835 156.575 511.312 Q 156.483 514.788 157.104 519.288 Q 157.725 523.787 158.756 527.197 Q 159.788 530.606 160.468 532.183 Q 161.148 533.759 161.619 534.767 Q 162.091 535.775 162.651 536.907 Q 163.212 538.039 164.526 539.873 Q 165.840 541.708 167.246 543.032 Q 168.651 544.355 169.503 544.887 Q 170.354 545.420 170.692 545.565 Q 171.029 545.710 171.117 545.782 Q 171.204 545.855 173.141 546.081 Q 175.077 546.307 176.362 546.182 Q 177.647 546.058 178.422 545.901 Q 179.197 545.743 180.464 545.193 Q 181.730 544.643 182.458 544.159 Q 183.186 543.675 183.346 543.534 Q 183.507 543.392 186.024 540.938 Q 188.541 538.484 190.267 536.158 Q 191.992 533.832 192.626 532.803 Q 193.260 531.775 193.888 530.709 Q 194.515 529.643 195.871 526.887 Q 197.227 524.132 199.027 520.484 "></path>
    <path id="STROKE_c449ff0f-1d71-480c-8e50-39c0fc7b9f9d" opacity="1.000" fill="none" stroke="#000000" stroke-width="1.800" stroke-opacity="1.000" stroke-linecap="round" stroke-linejoin="round" d="M 228.696 509.335 L 228.314 509.299 L 227.604 509.351 L 226.794 509.490 Q 225.666 509.845 225.293 510.033 Q 224.919 510.221 224.338 510.540 Q 223.758 510.859 222.340 511.995 Q 220.922 513.131 219.905 514.596 Q 218.887 516.060 218.195 517.350 Q 217.504 518.641 216.663 521.278 Q 215.823 523.915 215.586 525.701 Q 215.349 527.487 215.501 529.795 Q 215.652 532.102 216.799 534.190 Q 217.945 536.277 219.461 537.713 Q 220.977 539.148 223.402 539.952 Q 225.826 540.756 227.703 540.679 Q 229.580 540.602 231.187 539.932 Q 232.794 539.263 234.598 537.300 Q 236.402 535.338 237.559 532.546 Q 238.717 529.754 239.097 526.897 Q 239.478 524.040 239.202 521.975 Q 238.927 519.910 238.020 517.862 Q 237.114 515.813 235.244 514.238 Q 233.375 512.662 231.755 511.992 Q 230.136 511.322 228.913 511.153 Q 228.890 511.121 229.548 511.591 Q 230.207 512.060 231.658 512.250 Q 233.110 512.440 233.910 512.403 Q 234.710 512.366 236.440 512.021 Q 238.171 511.676 239.443 511.183 Q 240.716 510.689 241.880 510.088 Q 243.045 509.487 244.962 508.099 Q 246.879 506.711 247.715 505.991 Q 248.550 505.270 248.772 505.078 Q 248.994 504.886 249.138 504.741 Q 249.283 504.596 249.261 504.546 Q 249.484 504.423 247.820 532.136 Q 247.735 532.348 249.896 525.762 Q 252.057 519.175 254.144 513.458 Q 256.232 507.741 258.084 504.622 Q 259.937 501.504 261.755 500.411 Q 262.367 500.733 261.679 506.084 Q 260.991 511.434 260.148 515.164 Q 259.305 518.893 259.462 520.410 Q 259.580 520.584 262.982 515.533 Q 266.384 510.482 270.180 505.108 Q 273.976 499.734 276.384 497.739 Q 276.725 497.993 275.102 504.621 Q 273.478 511.250 273.472 521.292 Q 273.849 521.299 277.167 518.237 Q 280.486 515.176 282.447 512.562 Q 284.408 509.949 285.468 508.210 Q 286.529 506.470 287.183 505.252 Q 287.837 504.033 294.006 493.555 Q 293.994 493.887 292.657 498.912 Q 291.320 503.937 290.465 507.462 Q 289.610 510.987 288.746 515.501 Q 287.882 520.016 287.468 523.983 Q 287.053 527.950 286.667 532.414 Q 286.281 536.877 285.969 539.514 Q 285.657 542.151 284.260 546.938 Q 282.863 551.724 281.333 554.185 Q 281.120 553.949 283.323 545.554 Q 285.527 537.159 287.702 527.867 Q 289.876 518.575 291.059 513.935 Q 292.243 509.295 292.939 506.969 Q 293.635 504.642 294.487 502.222 Q 295.338 499.802 296.527 497.184 Q 297.716 494.566 299.265 492.483 Q 300.813 490.400 302.227 489.513 Q 303.642 488.627 304.467 488.463 Q 305.292 488.300 305.909 488.661 Q 306.526 489.022 307.079 489.754 Q 307.632 490.486 308.087 492.278 Q 308.543 494.070 308.596 495.548 Q 308.648 497.026 308.082 500.037 Q 307.516 503.047 305.430 506.878 Q 303.344 510.709 300.555 513.399 Q 297.767 516.089 296.181 517.075 Q 294.596 518.061 293.435 518.408 Q 292.273 518.755 291.833 518.691 Q 291.394 518.627 291.374 518.305 Q 291.355 517.982 291.427 517.808 Q 291.498 517.635 292.201 517.231 Q 292.904 516.827 296.025 516.030 Q 299.146 515.232 304.988 514.912 L 306.425 514.910 "></path>
    <path id="STROKE_b9728f0b-86a2-4096-bca7-f2cfba6876f0" opacity="1.000" fill="none" stroke="#000000" stroke-width="1.800" stroke-opacity="1.000" stroke-linecap="round" stroke-linejoin="round" d="M 320.976 488.738 L 321.143 488.953 Q 321.152 489.099 322.546 493.397 Q 323.939 497.694 325.293 502.385 Q 326.646 507.076 327.337 513.109 Q 327.205 512.921 328.228 508.520 Q 329.251 504.118 330.217 501.122 Q 331.182 498.125 331.865 496.577 Q 332.548 495.028 333.978 492.719 Q 335.408 490.411 337.118 488.920 Q 338.829 487.430 339.513 487.042 Q 340.198 486.654 340.856 486.446 Q 341.513 486.238 342.335 486.259 Q 343.157 486.280 343.520 486.922 Q 343.883 487.565 344.345 488.454 "></path>
    <path id="STROKE_81c713b7-1a19-460d-869c-51a22fa95f93" opacity="1.000" fill="none" stroke="#000000" stroke-width="1.800" stroke-opacity="1.000" stroke-linecap="round" stroke-linejoin="round" d="M 347.873 505.603 Q 348.648 505.084 351.513 503.073 Q 354.379 501.061 356.108 499.411 Q 357.838 497.762 359.210 495.363 Q 360.582 492.964 360.880 491.694 Q 361.177 490.423 361.047 489.836 Q 360.917 489.248 360.733 489.036 Q 360.548 488.824 360.318 488.760 Q 360.089 488.696 359.820 488.633 Q 359.552 488.569 358.040 489.285 Q 356.528 490.000 354.663 492.694 Q 352.797 495.388 352.114 497.383 Q 351.430 499.379 351.227 501.969 Q 351.023 504.560 351.454 506.444 Q 351.886 508.328 352.893 509.602 Q 353.900 510.875 355.214 511.751 Q 356.528 512.627 359.550 513.153 Q 362.572 513.678 366.845 512.323 Q 371.117 510.968 373.069 510.044 "></path>
    <path id="STROKE_d6c804b2-5773-4674-a962-8b68036ad696" opacity="1.000" fill="none" stroke="#000000" stroke-width="1.800" stroke-opacity="1.000" stroke-linecap="round" stroke-linejoin="round" d="M 371.620 508.485 Q 371.762 508.449 372.534 508.111 Q 373.306 507.773 373.822 507.495 Q 374.338 507.217 375.000 506.704 Q 375.663 506.191 375.755 506.139 Q 375.848 506.087 380.905 499.746 Q 385.962 493.404 389.415 488.205 Q 392.869 483.006 395.191 478.218 Q 397.513 473.430 399.549 467.458 Q 401.585 461.486 402.983 454.804 Q 404.381 448.123 404.529 444.744 Q 404.677 441.366 404.457 440.133 Q 404.237 438.900 404.017 438.556 Q 403.798 438.213 403.477 438.085 Q 403.155 437.958 402.899 437.954 Q 402.644 437.951 402.114 438.144 Q 401.585 438.338 399.180 442.101 Q 396.775 445.864 394.157 453.360 Q 391.538 460.857 389.463 467.183 Q 387.388 473.509 385.231 479.456 Q 383.073 485.402 375.494 508.670 Q 375.471 508.591 378.335 503.845 Q 381.198 499.099 384.337 494.488 Q 387.476 489.878 391.641 485.999 Q 395.806 482.120 399.195 480.983 Q 399.531 481.226 397.566 486.426 Q 395.601 491.627 394.011 495.173 Q 392.421 498.719 392.033 500.825 Q 391.645 502.931 391.751 503.777 Q 391.857 504.623 392.086 505.136 Q 392.315 505.649 392.922 505.922 Q 393.528 506.196 394.084 506.282 Q 394.639 506.368 395.137 506.293 Q 395.635 506.218 396.952 505.857 Q 398.269 505.495 401.260 503.344 Q 404.250 501.192 406.013 499.403 Q 407.775 497.615 409.936 494.734 Q 412.097 491.853 413.674 488.079 Q 415.251 484.305 414.874 480.447 Q 413.945 479.899 411.683 481.707 Q 409.422 483.515 407.372 487.107 Q 405.322 490.698 404.411 493.567 Q 403.501 496.435 403.383 499.446 Q 403.266 502.457 406.001 507.278 Q 406.087 507.392 411.044 502.560 Q 416.001 497.727 420.502 492.872 Q 425.002 488.017 428.610 486.275 Q 429.008 486.419 427.846 489.746 Q 426.683 493.072 423.846 498.222 Q 421.008 503.372 419.177 506.980 Q 419.123 506.938 421.835 503.089 Q 424.546 499.241 428.531 495.084 Q 432.517 490.928 436.589 489.405 Q 437.074 490.032 435.618 493.745 Q 434.162 497.458 432.090 501.425 Q 430.019 505.392 429.306 507.504 Q 428.594 509.616 428.485 511.270 Q 428.420 511.479 429.526 512.453 Q 429.849 513.441 430.957 514.343 "></path>
    <path id="STROKE_d44c7982-c392-4889-bf7f-fbf82490aa3c" opacity="1.000" fill="none" stroke="#000000" stroke-width="1.800" stroke-opacity="1.000" stroke-linecap="round" stroke-linejoin="round" d="M 459.302 497.903 Q 459.173 497.920 456.524 498.969 Q 453.875 500.017 451.204 501.909 Q 448.534 503.801 447.258 505.355 Q 445.983 506.909 445.659 507.675 Q 445.336 508.442 445.418 509.167 Q 445.397 509.339 445.914 509.517 Q 446.432 509.694 449.023 509.889 Q 451.614 510.084 453.896 510.459 Q 456.177 510.835 458.116 511.603 Q 460.055 512.372 461.497 513.643 Q 462.939 514.914 463.472 515.884 Q 464.005 516.854 464.081 517.639 Q 464.158 518.424 463.532 519.775 Q 462.905 521.126 460.325 522.912 Q 457.745 524.699 454.664 525.435 Q 451.583 526.171 449.208 526.044 Q 446.833 525.917 445.026 525.233 Q 443.220 524.549 442.027 523.496 Q 440.833 522.442 439.208 518.547 "></path>
    <path id="STROKE_90e4183f-d39e-4921-9f04-f07f16433278" opacity="1.000" fill="none" stroke="#000000" stroke-width="1.800" stroke-opacity="1.000" stroke-linecap="round" stroke-linejoin="round" d="M 475.995 514.012 L 475.757 514.354 Q 475.753 514.555 474.117 519.917 Q 472.482 525.279 471.383 527.907 Q 470.283 530.535 469.507 532.153 "></path>
    <path id="STROKE_d8cfd6a3-16d8-4287-b92f-f8e8e701e9ab" opacity="1.000" fill="none" stroke="#000000" stroke-width="1.800" stroke-opacity="1.000" stroke-linecap="round" stroke-linejoin="round" d="M 478.451 491.147 L 478.757 491.545 Q 479.152 491.725 480.593 493.840 "></path>
    <path id="STROKE_8b0b4eb1-2ec2-4911-9495-60cc32caabd4" opacity="1.000" fill="none" stroke="#000000" stroke-width="1.800" stroke-opacity="1.000" stroke-linecap="round" stroke-linejoin="round" d="M 486.892 519.114 Q 486.710 519.128 485.499 519.396 Q 484.288 519.664 482.789 521.451 Q 481.289 523.238 480.601 525.011 Q 479.912 526.784 479.852 528.424 Q 479.793 530.064 480.246 531.399 Q 480.700 532.733 482.476 533.846 Q 484.252 534.959 485.158 535.125 Q 486.063 535.292 487.018 535.238 Q 487.972 535.185 489.758 533.649 Q 491.544 532.113 492.498 530.669 Q 493.452 529.225 494.564 526.534 Q 495.676 523.844 495.924 521.765 Q 496.172 519.686 496.063 518.870 Q 495.954 518.055 495.588 517.230 Q 495.222 516.405 493.909 515.769 Q 492.595 515.133 486.890 517.335 L 485.947 518.169 "></path>
    <path id="STROKE_ae746e48-5029-4ab9-8381-6f95dc8ac887" opacity="1.000" fill="none" stroke="#000000" stroke-width="1.800" stroke-opacity="1.000" stroke-linecap="round" stroke-linejoin="round" d="M 506.986 524.405 Q 506.473 524.952 505.282 526.548 Q 504.091 528.145 501.710 532.643 Q 499.328 537.142 494.490 544.546 Q 494.413 544.740 495.769 542.591 Q 497.125 540.441 499.643 537.556 Q 502.162 534.671 504.614 533.006 Q 507.067 531.342 508.468 530.906 Q 509.869 530.470 510.661 530.478 Q 511.454 530.486 512.044 530.755 Q 512.633 531.025 513.112 532.336 Q 513.591 533.646 512.611 537.061 Q 511.631 540.476 510.021 543.273 Q 508.410 546.071 506.021 551.353 L 505.915 552.751 "></path>
    <path id="STROKE_8b6441bb-a5a7-4c13-920b-9cfa37f29ee2" opacity="1.000" fill="none" stroke="#000000" stroke-width="1.800" stroke-opacity="1.000" stroke-linecap="round" stroke-linejoin="round" d="M 525.946 540.373 Q 525.808 540.402 525.684 540.651 Q 525.613 540.805 522.833 542.575 Q 520.054 544.345 518.557 545.823 Q 517.060 547.302 516.726 547.984 Q 516.393 548.667 516.380 548.837 Q 516.367 549.008 516.427 549.174 Q 516.486 549.341 516.628 549.519 Q 516.769 549.696 517.119 549.886 Q 517.468 550.076 519.014 550.519 Q 520.559 550.962 523.112 551.573 Q 525.665 552.185 527.948 553.352 Q 530.231 554.520 531.381 555.695 Q 532.532 556.870 533.041 558.172 Q 533.551 559.475 533.547 560.765 Q 533.544 562.055 531.579 564.201 Q 529.615 566.347 528.098 567.256 Q 526.580 568.165 523.929 569.034 Q 521.278 569.904 519.265 570.175 Q 517.251 570.446 515.629 570.175 Q 514.007 569.904 512.025 569.427 "></path>
  </g>
</svg>